<svg version="1.1" id="Layer_1" xmlns="http://www.w3.org/2000/svg" xmlns:xlink="http://www.w3.org/1999/xlink" x="0px" y="0px"
	 width="100%" viewBox="0 0 360 360" enable-background="new 0 0 360 360" xml:space="preserve">
<path fill="#E7EFED" opacity="1.000000" stroke="none" 
	d="
M333.000000,361.000000 
	C222.000000,361.000000 111.500000,361.000000 1.000000,361.000000 
	C1.000000,241.000000 1.000000,121.000000 1.000000,1.000000 
	C121.000000,1.000000 241.000000,1.000000 361.000000,1.000000 
	C361.000000,121.000000 361.000000,241.000000 361.000000,361.000000 
	C351.833344,361.000000 342.666656,361.000000 333.000000,361.000000 
M177.372345,191.488083 
	C177.372345,195.905334 177.372345,200.322601 177.372345,204.740326 
	C180.747849,204.740326 183.332489,204.740326 185.920456,204.740326 
	C186.292465,203.073212 186.605698,201.669449 187.027374,199.779724 
	C187.951889,200.605637 188.543777,201.120468 189.120499,201.651764 
	C196.280975,208.247986 207.015411,206.786346 211.504807,198.152756 
	C215.521011,190.429169 215.360672,182.323013 210.859802,174.772003 
	C206.980835,168.264297 198.163956,166.245636 192.039246,170.043793 
	C190.694656,170.877609 189.470596,171.905777 187.382919,173.437241 
	C187.382919,166.204651 187.382919,159.821915 187.382919,153.395767 
	C183.828140,153.395767 180.896729,153.395767 177.372787,153.395767 
	C177.372787,165.934937 177.372787,178.213791 177.372345,191.488083 
M39.266090,203.051376 
	C42.012329,203.924164 44.758568,204.796951 47.565399,205.688995 
	C48.177464,203.033844 48.500881,201.630844 48.850250,200.115280 
	C61.220867,209.369873 72.977280,205.722656 75.674507,192.037048 
	C77.902534,180.732086 73.021057,170.131760 63.922634,168.863708 
	C59.348293,168.226166 54.376255,170.442093 49.168198,171.447952 
	C49.168198,166.224228 49.168198,159.831207 49.168198,153.450684 
	C45.617859,153.450684 42.695274,153.450684 39.242069,153.450684 
	C39.242069,169.885818 39.242069,186.008743 39.266090,203.051376 
M240.988861,205.589218 
	C245.548431,193.562637 250.108002,181.536057 254.733444,169.335724 
	C244.985229,168.512726 244.992233,168.514908 242.416824,176.757172 
	C240.495834,182.905045 238.553757,189.046326 236.621063,195.190536 
	C233.227142,187.437286 230.702911,179.900223 228.496063,172.271317 
	C227.751434,169.697189 226.561127,168.726852 223.953903,168.946960 
	C221.699005,169.137360 219.415268,168.986526 216.696426,168.986526 
	C217.286362,170.840790 217.597321,172.113327 218.087646,173.312531 
	C221.924698,182.696960 225.602707,192.154099 229.751358,201.399658 
	C231.430679,205.142151 231.348328,208.770752 228.477524,210.851639 
	C226.399811,212.357651 222.742401,211.715591 219.782837,211.946899 
	C219.200928,211.992371 218.588776,211.650879 217.683014,211.404037 
	C217.062073,213.670471 216.507431,215.694931 215.635391,218.877945 
	C219.715088,219.431488 223.404572,220.540176 227.003342,220.298431 
	C235.454880,219.730728 238.180786,212.969391 240.988861,205.589218 
M324.436584,182.206329 
	C322.189301,172.439743 315.334167,167.320862 305.727295,168.235672 
	C295.723083,169.188309 289.559692,175.833496 289.142212,186.117157 
	C288.713715,196.671295 294.353088,203.814789 304.486145,205.553650 
	C313.113159,207.034088 321.152557,203.246078 323.306854,196.525482 
	C321.018433,195.673782 318.721954,194.819092 316.227081,193.890564 
	C313.209625,198.426483 308.765137,199.391586 304.345520,197.536621 
	C301.926086,196.521118 300.353882,193.487000 298.399597,191.363144 
	C298.748932,190.882370 299.098267,190.401581 299.447601,189.920807 
	C307.671295,189.920807 315.894989,189.920807 324.598206,189.920807 
	C324.598206,187.278870 324.598206,185.153931 324.436584,182.206329 
M167.217133,190.051773 
	C167.760147,189.746109 168.718292,189.512070 168.785202,189.124268 
	C170.295914,180.368622 167.065659,171.674149 157.647400,168.996628 
	C142.560242,164.707489 130.553024,176.886002 134.318161,192.590286 
	C136.132278,200.156967 142.081955,204.992294 150.525085,205.761749 
	C158.518585,206.490219 165.028488,203.237335 168.012177,196.742249 
	C164.535294,195.558228 161.814911,192.528549 157.561066,196.618073 
	C155.777039,198.333221 150.920914,197.821106 147.881256,196.914307 
	C145.923996,196.330429 144.730576,193.186035 143.194809,191.189255 
	C143.574509,190.819443 143.954208,190.449631 144.333923,190.079819 
	C151.644974,190.079819 158.956039,190.079819 167.217133,190.051773 
M117.809685,194.014954 
	C117.809685,188.260010 117.809685,182.505081 117.809685,176.686737 
	C122.020508,176.483109 125.426018,176.318420 128.784546,176.155991 
	C128.784546,173.533096 128.784546,171.447937 128.784546,168.909790 
	C125.067810,168.909790 121.642593,168.909790 118.005623,168.909790 
	C117.813477,165.097443 117.643883,161.732361 117.471428,158.310638 
	C108.503014,160.142426 108.503014,160.142426 107.261978,168.677032 
	C105.360992,168.877899 103.422394,169.082733 101.282471,169.308838 
	C101.282471,171.621338 101.282471,173.724747 101.282471,176.447983 
	C108.475975,174.735687 107.942162,179.448166 107.755455,184.005646 
	C107.639580,186.834061 107.717140,189.671234 107.737503,192.504272 
	C107.814835,203.260330 113.767448,207.822739 124.301910,205.212265 
	C130.210815,203.748001 130.649475,202.706741 127.689339,197.116592 
	C124.176605,197.575928 120.135880,200.268402 117.809685,194.014954 
M273.081757,162.690872 
	C273.002319,161.257812 272.922882,159.824753 272.824005,158.040588 
	C269.583862,159.005356 265.990173,159.091537 264.134369,160.931030 
	C262.575684,162.475998 263.041931,166.063889 262.604279,168.793671 
	C260.656219,168.938080 258.872070,169.070328 256.945587,169.213150 
	C256.945587,171.610992 256.945587,173.825058 256.945587,176.099869 
	C259.077484,176.350342 260.859314,176.559692 263.140289,176.827667 
	C263.140289,182.053238 263.134705,187.177246 263.141479,192.301270 
	C263.155762,203.119629 268.955597,207.720963 279.491486,205.279388 
	C285.472900,203.893265 285.846222,203.123795 283.406372,197.140854 
	C281.662476,197.465744 279.634399,198.498093 278.223999,197.947693 
	C276.274719,197.186951 273.513245,195.372238 273.339172,193.766174 
	C272.737762,188.217422 273.107513,182.563431 273.107513,176.380829 
	C277.231720,176.380829 280.808838,176.380829 284.480988,176.380829 
	C284.480988,173.701294 284.480988,171.607864 284.480988,168.981964 
	C280.663483,168.981964 277.099915,168.981964 273.081848,168.981964 
	C273.081848,166.832535 273.081848,165.212646 273.081757,162.690872 
M84.369698,196.424866 
	C84.369698,199.188065 84.369698,201.951248 84.369698,204.824432 
	C88.026169,204.824432 90.976189,204.824432 94.186325,204.824432 
	C94.186325,192.896591 94.186325,181.167496 94.186325,169.300110 
	C90.903954,169.300110 87.858925,169.300110 84.370155,169.300110 
	C84.370155,178.225952 84.370155,186.834442 84.369698,196.424866 
M91.854340,163.639954 
	C95.345886,162.419907 96.905869,159.571350 95.094864,156.692825 
	C93.932777,154.845718 90.529274,153.312759 88.335793,153.548553 
	C86.496628,153.746277 83.651947,156.625076 83.532997,158.464279 
	C83.214851,163.383102 87.024200,164.144119 91.854340,163.639954 
z"/>
<path fill="#61735E" opacity="1.000000" stroke="none" 
	d="
M177.372559,190.990372 
	C177.372787,178.213791 177.372787,165.934937 177.372787,153.395767 
	C180.896729,153.395767 183.828140,153.395767 187.382919,153.395767 
	C187.382919,159.821915 187.382919,166.204651 187.382919,173.437241 
	C189.470596,171.905777 190.694656,170.877609 192.039246,170.043793 
	C198.163956,166.245636 206.980835,168.264297 210.859802,174.772003 
	C215.360672,182.323013 215.521011,190.429169 211.504807,198.152756 
	C207.015411,206.786346 196.280975,208.247986 189.120499,201.651764 
	C188.543777,201.120468 187.951889,200.605637 187.027374,199.779724 
	C186.605698,201.669449 186.292465,203.073212 185.920456,204.740326 
	C183.332489,204.740326 180.747849,204.740326 177.372345,204.740326 
	C177.372345,200.322601 177.372345,195.905334 177.372559,190.990372 
M204.038010,189.134186 
	C203.903473,186.818115 204.131195,184.408615 203.562790,182.204422 
	C202.160507,176.766495 196.893539,174.262604 192.334702,176.712097 
	C187.812485,179.141922 187.399521,183.538681 187.490662,187.957199 
	C187.609818,193.732895 190.302902,197.385925 194.560181,197.988022 
	C199.404800,198.673157 202.258759,196.246292 204.038010,189.134186 
z"/>
<path fill="#60725D" opacity="1.000000" stroke="none" 
	d="
M39.254082,202.591522 
	C39.242069,186.008743 39.242069,169.885818 39.242069,153.450684 
	C42.695274,153.450684 45.617859,153.450684 49.168198,153.450684 
	C49.168198,159.831207 49.168198,166.224228 49.168198,171.447952 
	C54.376255,170.442093 59.348293,168.226166 63.922634,168.863708 
	C73.021057,170.131760 77.902534,180.732086 75.674507,192.037048 
	C72.977280,205.722656 61.220867,209.369873 48.850250,200.115280 
	C48.500881,201.630844 48.177464,203.033844 47.565399,205.688995 
	C44.758568,204.796951 42.012329,203.924164 39.254082,202.591522 
M57.572121,175.952469 
	C52.204269,176.230484 50.252125,179.849976 49.510735,184.436615 
	C48.736385,189.227188 49.281239,193.758163 53.541973,196.899490 
	C54.520687,197.621063 55.975941,197.913223 57.238239,197.994659 
	C62.006409,198.302307 65.221832,195.195404 65.941956,189.784332 
	C66.993782,181.880753 64.584122,177.481308 57.572121,175.952469 
z"/>
<path fill="#5E715B" opacity="1.000000" stroke="none" 
	d="
M240.882233,205.956726 
	C238.180786,212.969391 235.454880,219.730728 227.003342,220.298431 
	C223.404572,220.540176 219.715088,219.431488 215.635391,218.877945 
	C216.507431,215.694931 217.062073,213.670471 217.683014,211.404037 
	C218.588776,211.650879 219.200928,211.992371 219.782837,211.946899 
	C222.742401,211.715591 226.399811,212.357651 228.477524,210.851639 
	C231.348328,208.770752 231.430679,205.142151 229.751358,201.399658 
	C225.602707,192.154099 221.924698,182.696960 218.087646,173.312531 
	C217.597321,172.113327 217.286362,170.840790 216.696426,168.986526 
	C219.415268,168.986526 221.699005,169.137360 223.953903,168.946960 
	C226.561127,168.726852 227.751434,169.697189 228.496063,172.271317 
	C230.702911,179.900223 233.227142,187.437286 236.621063,195.190536 
	C238.553757,189.046326 240.495834,182.905045 242.416824,176.757172 
	C244.992233,168.514908 244.985229,168.512726 254.733444,169.335724 
	C250.108002,181.536057 245.548431,193.562637 240.882233,205.956726 
z"/>
<path fill="#5F725D" opacity="1.000000" stroke="none" 
	d="
M324.517395,182.617661 
	C324.598206,185.153931 324.598206,187.278870 324.598206,189.920807 
	C315.894989,189.920807 307.671295,189.920807 299.447601,189.920807 
	C299.098267,190.401581 298.748932,190.882370 298.399597,191.363144 
	C300.353882,193.487000 301.926086,196.521118 304.345520,197.536621 
	C308.765137,199.391586 313.209625,198.426483 316.227081,193.890564 
	C318.721954,194.819092 321.018433,195.673782 323.306854,196.525482 
	C321.152557,203.246078 313.113159,207.034088 304.486145,205.553650 
	C294.353088,203.814789 288.713715,196.671295 289.142212,186.117157 
	C289.559692,175.833496 295.723083,169.188309 305.727295,168.235672 
	C315.334167,167.320862 322.189301,172.439743 324.517395,182.617661 
M310.278503,183.146118 
	C311.735260,183.146118 313.192017,183.146118 314.868225,183.146118 
	C314.463226,178.403320 312.219086,176.039505 307.968781,175.720993 
	C303.210175,175.364380 300.795105,177.405899 299.427765,183.146255 
	C302.808350,183.146255 306.078125,183.146255 310.278503,183.146118 
z"/>
<path fill="#5E715C" opacity="1.000000" stroke="none" 
	d="
M166.742126,190.065796 
	C158.956039,190.079819 151.644974,190.079819 144.333923,190.079819 
	C143.954208,190.449631 143.574509,190.819443 143.194809,191.189255 
	C144.730576,193.186035 145.923996,196.330429 147.881256,196.914307 
	C150.920914,197.821106 155.777039,198.333221 157.561066,196.618073 
	C161.814911,192.528549 164.535294,195.558228 168.012177,196.742249 
	C165.028488,203.237335 158.518585,206.490219 150.525085,205.761749 
	C142.081955,204.992294 136.132278,200.156967 134.318161,192.590286 
	C130.553024,176.886002 142.560242,164.707489 157.647400,168.996628 
	C167.065659,171.674149 170.295914,180.368622 168.785202,189.124268 
	C168.718292,189.512070 167.760147,189.746109 166.742126,190.065796 
M147.633408,176.717346 
	C146.254318,178.530411 144.875229,180.343491 142.995285,182.815033 
	C149.233643,182.815033 154.116089,182.815033 159.036316,182.815033 
	C158.205246,176.448074 155.565475,174.919785 147.633408,176.717346 
z"/>
<path fill="#5E715C" opacity="1.000000" stroke="none" 
	d="
M117.870865,194.463135 
	C120.135880,200.268402 124.176605,197.575928 127.689339,197.116592 
	C130.649475,202.706741 130.210815,203.748001 124.301910,205.212265 
	C113.767448,207.822739 107.814835,203.260330 107.737503,192.504272 
	C107.717140,189.671234 107.639580,186.834061 107.755455,184.005646 
	C107.942162,179.448166 108.475975,174.735687 101.282471,176.447983 
	C101.282471,173.724747 101.282471,171.621338 101.282471,169.308838 
	C103.422394,169.082733 105.360992,168.877899 107.261978,168.677032 
	C108.503014,160.142426 108.503014,160.142426 117.471428,158.310638 
	C117.643883,161.732361 117.813477,165.097443 118.005623,168.909790 
	C121.642593,168.909790 125.067810,168.909790 128.784546,168.909790 
	C128.784546,171.447937 128.784546,173.533096 128.784546,176.155991 
	C125.426018,176.318420 122.020508,176.483109 117.809685,176.686737 
	C117.809685,182.505081 117.809685,188.260010 117.870865,194.463135 
z"/>
<path fill="#5D705B" opacity="1.000000" stroke="none" 
	d="
M273.081787,163.141815 
	C273.081848,165.212646 273.081848,166.832535 273.081848,168.981964 
	C277.099915,168.981964 280.663483,168.981964 284.480988,168.981964 
	C284.480988,171.607864 284.480988,173.701294 284.480988,176.380829 
	C280.808838,176.380829 277.231720,176.380829 273.107513,176.380829 
	C273.107513,182.563431 272.737762,188.217422 273.339172,193.766174 
	C273.513245,195.372238 276.274719,197.186951 278.223999,197.947693 
	C279.634399,198.498093 281.662476,197.465744 283.406372,197.140854 
	C285.846222,203.123795 285.472900,203.893265 279.491486,205.279388 
	C268.955597,207.720963 263.155762,203.119629 263.141479,192.301270 
	C263.134705,187.177246 263.140289,182.053238 263.140289,176.827667 
	C260.859314,176.559692 259.077484,176.350342 256.945587,176.099869 
	C256.945587,173.825058 256.945587,171.610992 256.945587,169.213150 
	C258.872070,169.070328 260.656219,168.938080 262.604279,168.793671 
	C263.041931,166.063889 262.575684,162.475998 264.134369,160.931030 
	C265.990173,159.091537 269.583862,159.005356 272.824005,158.040588 
	C272.922882,159.824753 273.002319,161.257812 273.081787,163.141815 
z"/>
<path fill="#61735F" opacity="1.000000" stroke="none" 
	d="
M84.369926,195.933899 
	C84.370155,186.834442 84.370155,178.225952 84.370155,169.300110 
	C87.858925,169.300110 90.903954,169.300110 94.186325,169.300110 
	C94.186325,181.167496 94.186325,192.896591 94.186325,204.824432 
	C90.976189,204.824432 88.026169,204.824432 84.369698,204.824432 
	C84.369698,201.951248 84.369698,199.188065 84.369926,195.933899 
z"/>
<path fill="#61735F" opacity="1.000000" stroke="none" 
	d="
M91.470413,163.716400 
	C87.024200,164.144119 83.214851,163.383102 83.532997,158.464279 
	C83.651947,156.625076 86.496628,153.746277 88.335793,153.548553 
	C90.529274,153.312759 93.932777,154.845718 95.094864,156.692825 
	C96.905869,159.571350 95.345886,162.419907 91.470413,163.716400 
z"/>
<path fill="#E5EDEB" opacity="1.000000" stroke="none" 
	d="
M204.007202,189.557587 
	C202.258759,196.246292 199.404800,198.673157 194.560181,197.988022 
	C190.302902,197.385925 187.609818,193.732895 187.490662,187.957199 
	C187.399521,183.538681 187.812485,179.141922 192.334702,176.712097 
	C196.893539,174.262604 202.160507,176.766495 203.562790,182.204422 
	C204.131195,184.408615 203.903473,186.818115 204.007202,189.557587 
z"/>
<path fill="#E4ECEA" opacity="1.000000" stroke="none" 
	d="
M57.969887,175.953979 
	C64.584122,177.481308 66.993782,181.880753 65.941956,189.784332 
	C65.221832,195.195404 62.006409,198.302307 57.238239,197.994659 
	C55.975941,197.913223 54.520687,197.621063 53.541973,196.899490 
	C49.281239,193.758163 48.736385,189.227188 49.510735,184.436615 
	C50.252125,179.849976 52.204269,176.230484 57.969887,175.953979 
z"/>
<path fill="#E4ECEA" opacity="1.000000" stroke="none" 
	d="
M309.813171,183.146179 
	C306.078125,183.146255 302.808350,183.146255 299.427765,183.146255 
	C300.795105,177.405899 303.210175,175.364380 307.968781,175.720993 
	C312.219086,176.039505 314.463226,178.403320 314.868225,183.146118 
	C313.192017,183.146118 311.735260,183.146118 309.813171,183.146179 
z"/>
<path fill="#E4ECEA" opacity="1.000000" stroke="none" 
	d="
M147.987106,176.515259 
	C155.565475,174.919785 158.205246,176.448074 159.036316,182.815033 
	C154.116089,182.815033 149.233643,182.815033 142.995285,182.815033 
	C144.875229,180.343491 146.254318,178.530411 147.987106,176.515259 
z"/>
</svg>