<svg version="1.1" id="Layer_1" xmlns="http://www.w3.org/2000/svg" xmlns:xlink="http://www.w3.org/1999/xlink" x="0px" y="0px"
	 width="100%" viewBox="0 0 512 512" enable-background="new 0 0 512 512" xml:space="preserve">
<path fill="#FBC6BA" opacity="1.000000" stroke="none" 
	d="
M166.000000,513.000000 
	C111.026237,513.000000 56.052471,513.000000 1.039354,513.000000 
	C1.039354,342.440979 1.039354,171.881958 1.039354,1.000000 
	C79.687805,1.000000 158.376053,1.000000 237.835785,1.320037 
	C233.977066,3.438300 229.149933,4.853842 224.757645,7.114348 
	C215.590073,11.832464 206.986069,17.441698 200.659866,25.860544 
	C194.402512,34.187809 187.063446,41.961056 182.255020,51.063488 
	C172.760635,69.036552 167.115936,88.582329 163.086136,108.494499 
	C161.023941,118.684273 159.252563,128.971558 158.131546,139.299622 
	C157.378265,146.239868 157.294739,153.418839 158.182785,160.327591 
	C159.206955,168.295319 160.571304,176.530365 163.666000,183.855927 
	C170.027756,198.915054 181.846497,209.679855 194.816116,219.419952 
	C193.128113,222.815018 191.530777,225.879791 189.608063,228.859848 
	C187.152527,226.979858 184.996002,225.214783 182.897263,223.383484 
	C177.192825,218.405899 171.394211,213.528061 165.847946,208.379105 
	C154.403885,197.754868 143.220917,186.844986 131.606384,176.413544 
	C129.873886,174.857513 125.899239,174.122375 123.815163,175.010300 
	C120.341583,176.490250 117.234489,179.277557 114.544838,182.065933 
	C106.668785,190.231079 99.081978,209.469849 107.924271,223.600784 
	C115.330658,235.437012 122.231277,247.616760 130.138916,259.105408 
	C139.986786,273.412903 150.638794,287.166870 160.941864,301.541138 
	C159.959549,305.501709 158.768158,309.038727 158.039871,312.668640 
	C156.223679,321.720703 154.618057,330.815002 152.615082,340.042480 
	C142.456802,352.575592 133.389969,365.410889 127.887276,380.450073 
	C124.399887,389.981293 122.376709,399.660034 125.070305,409.663300 
	C126.662010,415.574524 128.803070,421.368011 131.093918,427.054565 
	C136.219879,439.778687 141.594131,452.402802 146.792465,465.408508 
	C139.923843,475.146545 139.832489,484.958649 144.943726,495.394470 
	C145.295395,496.161224 145.604507,496.623718 145.996643,497.324524 
	C146.358383,497.738281 146.637085,497.913757 146.998611,498.327393 
	C147.360443,498.738251 147.639450,498.910980 147.959198,499.433228 
	C151.802795,506.050781 158.446335,508.120209 164.526932,511.052246 
	C165.179337,511.366852 165.516571,512.335022 166.000000,513.000000 
z"/>
<path fill="#FBC6BA" opacity="1.000000" stroke="none" 
	d="
M274.000000,1.000000 
	C353.628326,1.000000 433.256622,1.000000 512.942505,1.000000 
	C512.942505,171.546143 512.942505,342.092316 512.942505,513.000000 
	C460.646332,513.000000 408.291809,513.000000 355.171112,512.687866 
	C355.201050,511.908875 355.962372,511.364899 356.798828,510.987457 
	C363.513855,507.957794 370.523865,505.336212 374.323547,498.002045 
	C374.736328,497.640594 374.909668,497.360840 375.362610,496.956665 
	C375.793579,496.251068 375.944946,495.669861 376.414124,494.899353 
	C381.637115,484.857330 381.082489,475.309387 375.444885,465.883545 
	C381.066559,452.706146 386.733246,439.838837 391.570740,426.666992 
	C395.305573,416.497711 400.307556,406.745514 398.202576,394.903198 
	C394.356384,373.264679 383.506287,355.718658 368.901581,339.533508 
	C364.098267,324.107635 359.467957,309.031250 354.993774,293.647034 
	C355.625916,292.875488 356.188141,292.472748 356.565338,291.939209 
	C370.358551,272.429535 384.388855,253.079712 397.772461,233.292557 
	C402.342224,226.536316 406.918671,219.272690 406.965393,210.540176 
	C407.029480,198.562485 402.914032,188.239380 394.289764,179.761520 
	C386.572510,172.175247 384.082550,172.093719 376.921906,179.564392 
	C376.345917,180.165314 375.771454,180.770660 375.158356,181.332565 
	C363.239166,192.256516 351.377136,203.244019 339.361938,214.061417 
	C334.031738,218.860275 328.389740,223.312881 322.574127,227.791168 
	C321.118103,225.431046 319.977234,223.202408 319.003265,220.666290 
	C329.763641,209.987000 340.425323,199.683350 350.902802,189.195694 
	C353.536255,186.559677 356.065765,183.592712 357.802307,180.330322 
	C363.040985,170.488586 364.590790,159.491287 364.732880,148.686096 
	C364.874207,137.940430 363.879547,126.929741 361.510406,116.458969 
	C357.837311,100.225311 352.777161,84.289726 347.924408,68.343620 
	C343.868195,55.014954 337.659546,42.564812 328.439514,32.115486 
	C314.501801,16.319420 296.945770,6.464806 276.007141,2.923429 
	C275.251282,2.795592 274.665192,1.663863 274.000000,1.000000 
z"/>
<path fill="#FE9530" opacity="1.000000" stroke="none" 
	d="
M273.531342,1.000000 
	C274.665192,1.663863 275.251282,2.795592 276.007141,2.923429 
	C296.945770,6.464806 314.501801,16.319420 328.439514,32.115486 
	C337.659546,42.564812 343.868195,55.014954 347.924408,68.343620 
	C352.777161,84.289726 357.837311,100.225311 361.510406,116.458969 
	C363.879547,126.929741 364.874207,137.940430 364.732880,148.686096 
	C364.590790,159.491287 363.040985,170.488586 357.802307,180.330322 
	C356.065765,183.592712 353.536255,186.559677 350.902802,189.195694 
	C340.425323,199.683350 329.763641,209.987000 318.663696,220.717743 
	C307.114685,228.752472 294.787415,233.326736 281.993195,237.312241 
	C260.084320,244.136963 239.205734,243.413559 218.976471,232.007706 
	C211.046387,227.536469 202.935394,223.386124 194.906784,219.089630 
	C181.846497,209.679855 170.027756,198.915054 163.666000,183.855927 
	C160.571304,176.530365 159.206955,168.295319 158.182785,160.327591 
	C157.294739,153.418839 157.378265,146.239868 158.131546,139.299622 
	C159.252563,128.971558 161.023941,118.684273 163.086136,108.494499 
	C167.115936,88.582329 172.760635,69.036552 182.255020,51.063488 
	C187.063446,41.961056 194.402512,34.187809 200.659866,25.860544 
	C206.986069,17.441698 215.590073,11.832464 224.757645,7.114348 
	C229.149933,4.853842 233.977066,3.438300 238.303635,1.320037 
	C249.687561,1.000000 261.375122,1.000000 273.531342,1.000000 
M216.153305,70.295433 
	C214.525208,63.719536 210.292984,59.270256 203.820969,58.144699 
	C197.533035,57.051163 194.625427,62.415771 192.602219,67.015205 
	C188.546661,76.234917 185.259537,85.792648 181.287567,95.789047 
	C179.487961,104.364235 177.092163,112.867233 176.042831,121.533264 
	C174.790237,131.878036 180.424927,138.802307 190.390411,140.897522 
	C200.027573,142.923706 204.047150,140.325836 208.800049,128.702530 
	C214.346176,111.553406 218.279678,94.127655 217.867554,75.281555 
	C217.220215,73.865089 216.572861,72.448624 216.153305,70.295433 
M305.036041,77.708389 
	C305.584015,95.355705 308.537689,112.552032 314.874146,129.850037 
	C316.125671,132.178253 317.206024,134.620712 318.666687,136.809357 
	C321.190826,140.591461 324.701141,142.031891 329.374756,141.395050 
	C343.301025,139.497421 349.467926,131.241348 346.700928,117.438324 
	C345.173126,109.816940 343.261993,102.272385 341.230621,93.866928 
	C337.101166,83.924469 333.226440,73.864586 328.723145,64.094444 
	C326.785522,59.890751 323.204956,56.775780 317.835175,58.276333 
	C312.308014,59.820862 307.178314,66.134842 306.983826,71.906601 
	C306.375916,73.525345 305.768005,75.144089 305.036041,77.708389 
M209.718918,207.907028 
	C205.413696,205.788742 201.108490,203.670456 196.803268,201.552185 
	C196.469025,202.150284 196.134781,202.748398 195.800522,203.346512 
	C197.877060,204.704025 199.789734,206.500275 202.057037,207.347000 
	C215.576172,212.395813 229.046906,217.636871 242.794617,221.989990 
	C252.644791,225.108994 262.872101,226.663513 273.321320,224.097260 
	C291.495819,219.633743 307.742340,210.951797 323.643158,201.483627 
	C324.467316,200.992874 324.881927,199.814285 325.487213,198.955917 
	C325.143250,198.583130 324.799286,198.210327 324.455292,197.837524 
	C322.790436,198.754456 321.158600,199.738388 319.455383,200.577484 
	C308.127686,206.158096 296.938141,212.054459 285.398987,217.159576 
	C275.879761,221.371078 265.619751,224.289062 255.255264,221.590149 
	C240.173203,217.662750 225.368469,212.670273 209.718918,207.907028 
M226.824753,62.138058 
	C227.509308,66.217773 228.096939,70.318069 228.955795,74.360764 
	C229.139313,75.224564 230.307327,75.879227 231.021790,76.630241 
	C231.573257,75.604134 232.695526,74.507454 232.578842,73.563972 
	C232.031311,69.136246 231.265686,64.723335 230.295212,60.368122 
	C230.034698,59.198994 228.779892,58.251419 227.981522,57.202133 
	C227.547104,58.581291 227.112671,59.960453 226.824753,62.138058 
M295.078644,69.588120 
	C295.591766,66.657127 296.299652,63.740696 296.520508,60.787853 
	C296.606873,59.633350 295.599274,58.397030 295.089935,57.197964 
	C294.337952,58.096634 293.165833,58.890953 292.911896,59.913322 
	C292.116516,63.115669 291.386261,66.386330 291.180145,69.665054 
	C291.036072,71.956482 291.792358,74.304527 292.146515,76.627296 
	C293.095734,74.558098 294.044952,72.488892 295.078644,69.588120 
M234.875671,191.881653 
	C234.057709,191.490341 233.239746,191.099030 232.421783,190.707718 
	C232.219055,191.284348 231.662842,192.113800 231.867081,192.399338 
	C234.541702,196.138474 237.323792,199.800720 240.078888,203.482285 
	C240.764740,202.982178 241.450577,202.482086 242.136414,201.981995 
	C239.838776,198.801270 237.541153,195.620529 234.875671,191.881653 
M288.255585,196.838150 
	C289.416473,194.999237 290.577362,193.160339 291.738281,191.321426 
	C286.358856,193.007095 281.961151,199.550156 282.679443,203.706863 
	C284.650513,201.320343 286.258545,199.373398 288.255585,196.838150 
z"/>
<path fill="#ED7F36" opacity="1.000000" stroke="none" 
	d="
M374.084076,498.083771 
	C370.523865,505.336212 363.513855,507.957794 356.798828,510.987457 
	C355.962372,511.364899 355.201050,511.908875 354.702454,512.687866 
	C341.312439,513.000000 327.624878,513.000000 313.750214,512.659912 
	C311.512512,511.542511 309.446045,510.804321 307.414368,509.980377 
	C301.663544,507.648254 295.936340,505.271454 295.390228,497.861816 
	C296.915161,498.703705 298.015869,499.732300 299.262177,500.534851 
	C304.087036,503.641846 311.226562,502.905792 315.421783,498.942963 
	C319.091461,495.476562 320.092316,489.927124 317.805481,485.725494 
	C315.199890,480.938202 309.506409,478.598145 303.682709,479.920990 
	C296.788544,481.487000 293.962769,485.902618 293.644409,494.836304 
	C292.291809,487.208374 291.931824,479.853912 296.274811,473.133911 
	C296.469391,472.832886 296.079041,472.153870 295.980713,471.714630 
	C296.000305,471.778351 295.893768,471.860779 296.093567,472.202637 
	C296.647675,472.165771 297.001984,471.787079 297.356323,471.408386 
	C296.789062,471.466217 296.221832,471.524017 295.739075,471.207825 
	C299.864441,467.536377 303.905304,464.238922 308.153687,461.181519 
	C317.295013,458.764130 326.073151,455.092926 335.199829,453.691559 
	C348.235992,451.689911 360.612000,454.576324 371.030212,463.474823 
	C372.246918,464.514069 373.758240,465.208313 375.132965,466.062531 
	C381.082489,475.309387 381.637115,484.857330 376.296875,494.800110 
	C375.861816,494.890167 375.624542,494.695068 375.715057,494.328735 
	C375.973907,493.149536 376.182220,492.342590 376.304016,491.522766 
	C377.054352,486.472290 374.800385,481.869415 370.594849,479.908844 
	C366.763214,478.122559 363.435303,479.048798 360.705627,482.072296 
	C357.529388,485.590393 357.248779,490.901886 359.839233,495.057800 
	C362.960754,500.065704 367.588989,500.877655 373.658844,497.615112 
	C373.799194,497.772583 374.084076,498.083771 374.084076,498.083771 
M330.286377,485.591064 
	C325.898010,488.655365 323.554321,492.772827 325.274994,498.049622 
	C326.970642,503.249756 331.546539,505.807983 336.531830,505.645752 
	C340.786926,505.507263 345.583282,504.320435 349.071381,501.994446 
	C356.198029,497.242004 355.023468,487.938843 347.260559,484.345978 
	C341.772491,481.805969 336.240845,482.330048 330.286377,485.591064 
z"/>
<path fill="#ED7F36" opacity="1.000000" stroke="none" 
	d="
M166.468658,513.000000 
	C165.516571,512.335022 165.179337,511.366852 164.526932,511.052246 
	C158.446335,508.120209 151.802795,506.050781 148.101822,499.272217 
	C148.203690,498.761749 148.484940,498.436310 148.822525,498.615784 
	C150.577377,499.199677 151.977966,499.869598 153.414932,499.959778 
	C158.175888,500.258575 162.333618,496.301056 163.003754,491.052490 
	C163.690201,485.676147 160.875641,481.015900 156.215942,479.813477 
	C151.723648,478.654236 146.770950,481.374146 145.511581,486.336334 
	C144.849075,488.946716 145.423233,491.870941 145.303635,494.761566 
	C145.168304,494.869659 144.901184,495.090210 144.901184,495.090210 
	C139.832489,484.958649 139.923843,475.146545 147.148315,465.358032 
	C148.035904,464.775818 148.573151,464.682007 148.938293,464.380066 
	C162.713547,452.989380 178.530533,450.855194 195.261627,455.053528 
	C202.066788,456.761169 208.410110,460.309296 215.157043,463.289642 
	C218.950699,467.373566 222.550888,471.187866 226.211609,475.371826 
	C229.794922,482.535675 230.025955,489.416290 226.850067,495.904785 
	C226.943039,495.093994 227.023666,494.767792 227.053802,494.437042 
	C227.719223,487.132141 224.882599,482.426819 218.628860,480.451538 
	C212.939163,478.654419 206.605804,480.916534 203.776154,485.756500 
	C201.184677,490.189087 202.093307,495.745239 206.007629,499.401703 
	C210.682022,503.768127 217.301132,504.102478 223.037781,500.321686 
	C223.931656,499.732574 224.982025,499.380920 225.970642,499.286804 
	C223.444962,506.984894 217.090515,509.082306 210.561813,511.032227 
	C209.597961,511.320129 208.848602,512.326172 208.000000,513.000000 
	C194.312439,513.000000 180.624878,513.000000 166.468658,513.000000 
M193.986725,488.617188 
	C187.584229,482.638367 179.477234,481.341522 172.988113,485.258179 
	C166.813690,488.984833 165.815033,496.238342 170.868958,501.374939 
	C175.524277,506.106476 181.355835,507.075989 187.502869,505.631165 
	C195.786972,503.683990 198.536652,496.869904 193.986725,488.617188 
z"/>
<path fill="#000000" opacity="1.000000" stroke="none" 
	d="
M208.468658,513.000000 
	C208.848602,512.326172 209.597961,511.320129 210.561813,511.032227 
	C217.090515,509.082306 223.444962,506.984894 225.984406,499.311401 
	C225.987549,498.968628 225.933792,498.983307 226.301758,498.856323 
	C226.717102,497.966705 226.764481,497.204041 226.831558,496.427185 
	C226.851273,496.412994 226.814178,496.387268 226.814178,496.387268 
	C230.025955,489.416290 229.794922,482.535675 226.576141,475.375854 
	C227.182587,475.107330 227.506866,475.162659 227.784271,475.307678 
	C241.915039,482.693451 256.741699,486.650055 272.435730,481.825378 
	C280.553009,479.329956 288.136475,475.098206 295.961121,471.650940 
	C296.079041,472.153870 296.469391,472.832886 296.274811,473.133911 
	C291.931824,479.853912 292.291809,487.208374 293.641968,494.811890 
	C294.017395,494.967621 293.968353,494.962891 293.976257,495.324036 
	C294.343384,496.452179 294.702637,497.219238 295.033447,497.990784 
	C295.005035,497.995300 295.032898,497.944672 295.032898,497.944672 
	C295.936340,505.271454 301.663544,507.648254 307.414368,509.980377 
	C309.446045,510.804321 311.512512,511.542511 313.281555,512.659912 
	C278.312439,513.000000 243.624878,513.000000 208.468658,513.000000 
z"/>
<path fill="#E85F04" opacity="1.000000" stroke="none" 
	d="
M194.816116,219.419952 
	C202.935394,223.386124 211.046387,227.536469 218.976471,232.007706 
	C239.205734,243.413559 260.084320,244.136963 281.993195,237.312241 
	C294.787415,233.326736 307.114685,228.752472 318.496765,221.025238 
	C319.977234,223.202408 321.118103,225.431046 322.606598,228.170868 
	C325.423035,233.733093 327.893188,238.783493 330.360535,243.835266 
	C338.520111,260.541534 346.678680,277.248260 354.837646,293.954834 
	C359.467957,309.031250 364.098267,324.107635 368.629456,339.789734 
	C364.028259,352.547882 359.764679,364.796570 354.914978,376.808655 
	C352.768616,382.124969 349.435730,386.962189 346.689880,391.572968 
	C349.088287,376.721985 349.303467,362.297699 347.018311,347.864166 
	C342.565277,319.737244 331.656799,294.729706 309.945923,275.653564 
	C287.261902,255.722397 261.218719,249.528915 232.440872,260.382812 
	C211.777908,268.176117 197.187347,283.297821 186.340393,302.129150 
	C172.630096,325.931488 167.997162,351.840515 168.926941,378.806610 
	C165.406525,370.517303 162.205200,362.422791 158.943344,354.352814 
	C156.987076,349.512878 154.936264,344.711212 152.927933,339.892365 
	C154.618057,330.815002 156.223679,321.720703 158.039871,312.668640 
	C158.768158,309.038727 159.959549,305.501709 161.253632,301.356812 
	C165.025299,292.236755 168.549377,283.708252 171.927246,275.122253 
	C177.975723,259.747925 183.936172,244.339005 189.933426,228.944550 
	C191.530777,225.879791 193.128113,222.815018 194.816116,219.419952 
z"/>
<path fill="#FF9530" opacity="1.000000" stroke="none" 
	d="
M152.615082,340.042480 
	C154.936264,344.711212 156.987076,349.512878 158.943344,354.352814 
	C162.205200,362.422791 165.406525,370.517303 169.151337,379.074158 
	C171.934494,384.300018 173.649277,389.426270 176.570145,393.735016 
	C184.667145,405.679291 193.595810,417.064758 201.566864,429.088013 
	C208.376205,439.359039 213.424850,450.555573 214.963593,463.019958 
	C208.410110,460.309296 202.066788,456.761169 195.261627,455.053528 
	C178.530533,450.855194 162.713547,452.989380 148.938293,464.380066 
	C148.573151,464.682007 148.035904,464.775818 147.223083,465.017151 
	C141.594131,452.402802 136.219879,439.778687 131.093918,427.054565 
	C128.803070,421.368011 126.662010,415.574524 125.070305,409.663300 
	C122.376709,399.660034 124.399887,389.981293 127.887276,380.450073 
	C133.389969,365.410889 142.456802,352.575592 152.615082,340.042480 
z"/>
<path fill="#FF9530" opacity="1.000000" stroke="none" 
	d="
M189.608063,228.859848 
	C183.936172,244.339005 177.975723,259.747925 171.927246,275.122253 
	C168.549377,283.708252 165.025299,292.236755 161.255341,300.975525 
	C150.638794,287.166870 139.986786,273.412903 130.138916,259.105408 
	C122.231277,247.616760 115.330658,235.437012 107.924271,223.600784 
	C99.081978,209.469849 106.668785,190.231079 114.544838,182.065933 
	C117.234489,179.277557 120.341583,176.490250 123.815163,175.010300 
	C125.899239,174.122375 129.873886,174.857513 131.606384,176.413544 
	C143.220917,186.844986 154.403885,197.754868 165.847946,208.379105 
	C171.394211,213.528061 177.192825,218.405899 182.897263,223.383484 
	C184.996002,225.214783 187.152527,226.979858 189.608063,228.859848 
z"/>
<path fill="#ED7F36" opacity="1.000000" stroke="none" 
	d="
M145.913635,497.086212 
	C145.604507,496.623718 145.295395,496.161224 144.943726,495.394470 
	C144.901184,495.090210 145.168304,494.869659 145.480072,494.970459 
	C146.042572,495.555664 146.293335,496.040070 146.385437,496.663788 
	C146.226807,496.803070 145.913635,497.086212 145.913635,497.086212 
z"/>
<path fill="#ED7F36" opacity="1.000000" stroke="none" 
	d="
M146.915787,498.089264 
	C146.637085,497.913757 146.358383,497.738281 145.996658,497.324524 
	C145.913635,497.086212 146.226807,496.803070 146.548615,496.825287 
	C147.084427,497.069244 147.266373,497.314758 147.290680,497.709839 
	C147.165085,497.835693 146.915787,498.089264 146.915787,498.089264 
z"/>
<path fill="#ED7F36" opacity="1.000000" stroke="none" 
	d="
M148.061066,498.922729 
	C147.639450,498.910980 147.360443,498.738251 146.998611,498.327393 
	C146.915787,498.089264 147.165085,497.835693 147.483536,497.832275 
	C148.047638,498.011108 148.275299,498.213593 148.484940,498.436310 
	C148.484940,498.436310 148.203690,498.761749 148.061066,498.922729 
z"/>
<path fill="#FF9530" opacity="1.000000" stroke="none" 
	d="
M346.641449,392.016907 
	C349.435730,386.962189 352.768616,382.124969 354.914978,376.808655 
	C359.764679,364.796570 364.028259,352.547882 368.802429,340.139191 
	C383.506287,355.718658 394.356384,373.264679 398.202576,394.903198 
	C400.307556,406.745514 395.305573,416.497711 391.570740,426.666992 
	C386.733246,439.838837 381.066559,452.706146 375.444885,465.883545 
	C373.758240,465.208313 372.246918,464.514069 371.030212,463.474823 
	C360.612000,454.576324 348.235992,451.689911 335.199829,453.691559 
	C326.073151,455.092926 317.295013,458.764130 308.163055,460.788025 
	C308.841064,456.963684 309.597870,453.734406 310.613403,450.588654 
	C315.913513,434.170807 326.332520,420.786591 336.363281,407.156464 
	C339.976044,402.247345 343.225952,397.071198 346.641449,392.016907 
z"/>
<path fill="#FF9530" opacity="1.000000" stroke="none" 
	d="
M354.993835,293.647034 
	C346.678680,277.248260 338.520111,260.541534 330.360535,243.835266 
	C327.893188,238.783493 325.423035,233.733093 322.921753,228.302368 
	C328.389740,223.312881 334.031738,218.860275 339.361938,214.061417 
	C351.377136,203.244019 363.239166,192.256516 375.158356,181.332565 
	C375.771454,180.770660 376.345917,180.165314 376.921906,179.564392 
	C384.082550,172.093719 386.572510,172.175247 394.289764,179.761520 
	C402.914032,188.239380 407.029480,198.562485 406.965393,210.540176 
	C406.918671,219.272690 402.342224,226.536316 397.772461,233.292557 
	C384.388855,253.079712 370.358551,272.429535 356.565338,291.939209 
	C356.188141,292.472748 355.625916,292.875488 354.993835,293.647034 
z"/>
<path fill="#ED7F36" opacity="1.000000" stroke="none" 
	d="
M375.979065,494.989410 
	C375.944946,495.669861 375.793579,496.251068 375.192932,496.805054 
	C374.743652,496.777863 374.401123,496.478241 374.543335,496.246948 
	C374.998566,495.575439 375.311554,495.135254 375.624542,494.695068 
	C375.624542,494.695068 375.861816,494.890167 375.979065,494.989410 
z"/>
<path fill="#ED7F36" opacity="1.000000" stroke="none" 
	d="
M374.913330,496.929474 
	C374.909668,497.360840 374.736328,497.640594 374.323547,498.002045 
	C374.084076,498.083771 373.799194,497.772583 373.800415,497.447205 
	C373.993011,496.899414 374.192810,496.684875 374.401123,496.478241 
	C374.401123,496.478241 374.743652,496.777863 374.913330,496.929474 
z"/>
<path fill="#141111" opacity="1.000000" stroke="none" 
	d="
M307.047028,71.235390 
	C307.178314,66.134842 312.308014,59.820862 317.835175,58.276333 
	C323.204956,56.775780 326.785522,59.890751 328.723145,64.094444 
	C333.226440,73.864586 337.101166,83.924469 341.252625,94.514862 
	C339.639496,94.594269 338.004395,94.025749 335.908081,93.296875 
	C336.189667,95.212585 336.485809,96.948380 336.694519,98.694618 
	C337.705383,107.152939 341.718781,115.289284 339.133057,124.142799 
	C337.758392,128.849655 335.769165,130.606491 331.234650,128.653534 
	C326.825623,126.754593 322.967926,123.575577 318.420868,120.673164 
	C317.421692,122.937332 316.050659,126.043999 314.679657,129.150665 
	C308.537689,112.552032 305.584015,95.355705 305.447083,77.419701 
	C306.234314,78.909920 306.316315,80.819473 307.038086,82.444939 
	C310.035645,89.195480 313.076599,95.938026 316.479095,102.487427 
	C317.117645,103.716614 319.483551,104.048416 321.052368,104.794319 
	C321.746429,103.214256 323.029510,101.637512 323.038422,100.053612 
	C323.093750,90.220604 319.735138,81.456268 313.454437,73.998360 
	C312.114410,72.407188 309.223480,72.122154 307.047028,71.235390 
z"/>
<path fill="#141111" opacity="1.000000" stroke="none" 
	d="
M217.848557,75.953209 
	C218.279678,94.127655 214.346176,111.553406 208.430359,128.622528 
	C206.813034,125.637146 205.565384,122.731789 204.579041,120.434883 
	C200.542679,123.287018 197.342484,126.234703 193.592438,128.040466 
	C187.671387,130.891617 185.034607,129.411804 183.881134,122.998390 
	C183.309662,119.820946 183.218033,116.430374 183.635513,113.230988 
	C184.296967,108.162033 185.617325,103.181786 186.552338,98.144218 
	C186.848160,96.550415 186.803543,94.893417 186.894180,93.566124 
	C184.739517,94.242561 183.197372,94.726707 181.655212,95.210854 
	C185.259537,85.792648 188.546661,76.234917 192.602219,67.015205 
	C194.625427,62.415771 197.533035,57.051163 203.820969,58.144699 
	C210.292984,59.270256 214.525208,63.719536 215.668961,70.666595 
	C214.526001,71.107391 213.797043,71.017029 213.219467,71.270958 
	C206.134445,74.386002 197.572281,95.271736 200.371597,102.512741 
	C201.611649,105.720375 203.958939,105.667374 205.689880,103.516243 
	C208.464813,100.067711 211.240738,96.391228 212.932297,92.356628 
	C215.127014,87.121918 216.259064,81.441673 217.848557,75.953209 
z"/>
<path fill="#479C98" opacity="1.000000" stroke="none" 
	d="
M314.776917,129.500351 
	C316.050659,126.043999 317.421692,122.937332 318.420868,120.673164 
	C322.967926,123.575577 326.825623,126.754593 331.234650,128.653534 
	C335.769165,130.606491 337.758392,128.849655 339.133057,124.142799 
	C341.718781,115.289284 337.705383,107.152939 336.694519,98.694618 
	C336.485809,96.948380 336.189667,95.212585 335.908081,93.296875 
	C338.004395,94.025749 339.639496,94.594269 341.399139,94.927994 
	C343.261993,102.272385 345.173126,109.816940 346.700928,117.438324 
	C349.467926,131.241348 343.301025,139.497421 329.374756,141.395050 
	C324.701141,142.031891 321.190826,140.591461 318.666687,136.809357 
	C317.206024,134.620712 316.125671,132.178253 314.776917,129.500351 
z"/>
<path fill="#479C98" opacity="1.000000" stroke="none" 
	d="
M181.471390,95.499954 
	C183.197372,94.726707 184.739517,94.242561 186.894180,93.566124 
	C186.803543,94.893417 186.848160,96.550415 186.552338,98.144218 
	C185.617325,103.181786 184.296967,108.162033 183.635513,113.230988 
	C183.218033,116.430374 183.309662,119.820946 183.881134,122.998390 
	C185.034607,129.411804 187.671387,130.891617 193.592438,128.040466 
	C197.342484,126.234703 200.542679,123.287018 204.579041,120.434883 
	C205.565384,122.731789 206.813034,125.637146 208.213745,128.910904 
	C204.047150,140.325836 200.027573,142.923706 190.390411,140.897522 
	C180.424927,138.802307 174.790237,131.878036 176.042831,121.533264 
	C177.092163,112.867233 179.487961,104.364235 181.471390,95.499954 
z"/>
<path fill="#180E05" opacity="1.000000" stroke="none" 
	d="
M210.082214,208.019485 
	C225.368469,212.670273 240.173203,217.662750 255.255264,221.590149 
	C265.619751,224.289062 275.879761,221.371078 285.398987,217.159576 
	C296.938141,212.054459 308.127686,206.158096 319.455383,200.577484 
	C321.158600,199.738388 322.790436,198.754456 324.455292,197.837524 
	C324.799286,198.210327 325.143250,198.583130 325.487213,198.955917 
	C324.881927,199.814285 324.467316,200.992874 323.643158,201.483627 
	C307.742340,210.951797 291.495819,219.633743 273.321320,224.097260 
	C262.872101,226.663513 252.644791,225.108994 242.794617,221.989990 
	C229.046906,217.636871 215.576172,212.395813 202.057037,207.347000 
	C199.789734,206.500275 197.877060,204.704025 195.800522,203.346512 
	C196.134781,202.748398 196.469025,202.150284 196.803268,201.552185 
	C201.108490,203.670456 205.413696,205.788742 210.082214,208.019485 
z"/>
<path fill="#B9B8C8" opacity="1.000000" stroke="none" 
	d="
M217.858063,75.617386 
	C216.259064,81.441673 215.127014,87.121918 212.932297,92.356628 
	C211.240738,96.391228 208.464813,100.067711 205.689880,103.516243 
	C203.958939,105.667374 201.611649,105.720375 200.371597,102.512741 
	C197.572281,95.271736 206.134445,74.386002 213.219467,71.270958 
	C213.797043,71.017029 214.526001,71.107391 215.555054,71.034958 
	C216.572861,72.448624 217.220215,73.865089 217.858063,75.617386 
z"/>
<path fill="#B9B8C8" opacity="1.000000" stroke="none" 
	d="
M307.015442,71.570999 
	C309.223480,72.122154 312.114410,72.407188 313.454437,73.998360 
	C319.735138,81.456268 323.093750,90.220604 323.038422,100.053612 
	C323.029510,101.637512 321.746429,103.214256 321.052368,104.794319 
	C319.483551,104.048416 317.117645,103.716614 316.479095,102.487427 
	C313.076599,95.938026 310.035645,89.195480 307.038086,82.444939 
	C306.316315,80.819473 306.234314,78.909920 305.509125,76.946922 
	C305.768005,75.144089 306.375916,73.525345 307.015442,71.570999 
z"/>
<path fill="#281A0D" opacity="1.000000" stroke="none" 
	d="
M226.751495,61.738834 
	C227.112671,59.960453 227.547104,58.581291 227.981522,57.202133 
	C228.779892,58.251419 230.034698,59.198994 230.295212,60.368122 
	C231.265686,64.723335 232.031311,69.136246 232.578842,73.563972 
	C232.695526,74.507454 231.573257,75.604134 231.021790,76.630241 
	C230.307327,75.879227 229.139313,75.224564 228.955795,74.360764 
	C228.096939,70.318069 227.509308,66.217773 226.751495,61.738834 
z"/>
<path fill="#281A0D" opacity="1.000000" stroke="none" 
	d="
M295.036438,70.003906 
	C294.044952,72.488892 293.095734,74.558098 292.146484,76.627289 
	C291.792358,74.304527 291.036072,71.956482 291.180145,69.665054 
	C291.386261,66.386330 292.116516,63.115669 292.911896,59.913322 
	C293.165833,58.890953 294.337952,58.096634 295.089935,57.197968 
	C295.599274,58.397030 296.606873,59.633350 296.520508,60.787853 
	C296.299652,63.740696 295.591766,66.657127 295.036438,70.003906 
z"/>
<path fill="#281A0D" opacity="1.000000" stroke="none" 
	d="
M235.059601,192.160721 
	C237.541153,195.620529 239.838776,198.801270 242.136414,201.981995 
	C241.450577,202.482086 240.764740,202.982178 240.078888,203.482285 
	C237.323792,199.800720 234.541702,196.138474 231.867081,192.399338 
	C231.662842,192.113800 232.219055,191.284348 232.421783,190.707718 
	C233.239746,191.099030 234.057709,191.490341 235.059601,192.160721 
z"/>
<path fill="#281A0D" opacity="1.000000" stroke="none" 
	d="
M288.061096,197.132309 
	C286.258545,199.373398 284.650513,201.320343 282.679443,203.706863 
	C281.961151,199.550156 286.358856,193.007095 291.738281,191.321426 
	C290.577362,193.160339 289.416473,194.999237 288.061096,197.132309 
z"/>
<path fill="#F7EFD0" opacity="1.000000" stroke="none" 
	d="
M346.689880,391.572968 
	C343.225952,397.071198 339.976044,402.247345 336.363281,407.156464 
	C326.332520,420.786591 315.913513,434.170807 310.613403,450.588654 
	C309.597870,453.734406 308.841064,456.963684 307.955536,460.547974 
	C303.905304,464.238922 299.864441,467.536377 295.761658,471.304291 
	C295.699738,471.774750 295.893768,471.860779 295.893768,471.860779 
	C295.893768,471.860779 296.000305,471.778351 295.980713,471.714661 
	C288.136475,475.098206 280.553009,479.329956 272.435730,481.825378 
	C256.741699,486.650055 241.915039,482.693451 227.784271,475.307678 
	C227.506866,475.162659 227.182587,475.107330 226.515625,475.006165 
	C222.550888,471.187866 218.950699,467.373566 215.157043,463.289612 
	C213.424850,450.555573 208.376205,439.359039 201.566864,429.088013 
	C193.595810,417.064758 184.667145,405.679291 176.570145,393.735016 
	C173.649277,389.426270 171.934494,384.300018 169.444946,379.279297 
	C167.997162,351.840515 172.630096,325.931488 186.340393,302.129150 
	C197.187347,283.297821 211.777908,268.176117 232.440872,260.382812 
	C261.218719,249.528915 287.261902,255.722397 309.945923,275.653564 
	C331.656799,294.729706 342.565277,319.737244 347.018311,347.864166 
	C349.303467,362.297699 349.088287,376.721985 346.689880,391.572968 
z"/>
<path fill="#DCD8DA" opacity="1.000000" stroke="none" 
	d="
M330.604614,485.378723 
	C336.240845,482.330048 341.772491,481.805969 347.260559,484.345978 
	C355.023468,487.938843 356.198029,497.242004 349.071381,501.994446 
	C345.583282,504.320435 340.786926,505.507263 336.531830,505.645752 
	C331.546539,505.807983 326.970642,503.249756 325.274994,498.049622 
	C323.554321,492.772827 325.898010,488.655365 330.604614,485.378723 
z"/>
<path fill="#DCD8DA" opacity="1.000000" stroke="none" 
	d="
M294.019836,494.992065 
	C293.962769,485.902618 296.788544,481.487000 303.682709,479.920990 
	C309.506409,478.598145 315.199890,480.938202 317.805481,485.725494 
	C320.092316,489.927124 319.091461,495.476562 315.421783,498.942963 
	C311.226562,502.905792 304.087036,503.641846 299.262177,500.534851 
	C298.015869,499.732300 296.915161,498.703705 295.390228,497.861816 
	C295.032898,497.944672 295.005035,497.995300 295.201202,497.664398 
	C294.921021,496.543304 294.444672,495.753082 293.968353,494.962891 
	C293.968353,494.962891 294.017395,494.967621 294.019836,494.992065 
z"/>
<path fill="#DCD8DA" opacity="1.000000" stroke="none" 
	d="
M374.543335,496.246948 
	C374.192810,496.684875 373.993011,496.899414 373.660095,497.289734 
	C367.588989,500.877655 362.960754,500.065704 359.839233,495.057800 
	C357.248779,490.901886 357.529388,485.590393 360.705627,482.072296 
	C363.435303,479.048798 366.763214,478.122559 370.594849,479.908844 
	C374.800385,481.869415 377.054352,486.472290 376.304016,491.522766 
	C376.182220,492.342590 375.973907,493.149536 375.715057,494.328735 
	C375.311554,495.135254 374.998566,495.575439 374.543335,496.246948 
z"/>
<path fill="#000000" opacity="1.000000" stroke="none" 
	d="
M296.093567,472.202637 
	C295.893768,471.860779 295.699738,471.774750 295.677155,471.678284 
	C296.221832,471.524017 296.789062,471.466217 297.356323,471.408386 
	C297.001984,471.787079 296.647675,472.165771 296.093567,472.202637 
z"/>
<path fill="#DCD8DA" opacity="1.000000" stroke="none" 
	d="
M194.224182,488.906677 
	C198.536652,496.869904 195.786972,503.683990 187.502869,505.631165 
	C181.355835,507.075989 175.524277,506.106476 170.868958,501.374939 
	C165.815033,496.238342 166.813690,488.984833 172.988113,485.258179 
	C179.477234,481.341522 187.584229,482.638367 194.224182,488.906677 
z"/>
<path fill="#DCD8DA" opacity="1.000000" stroke="none" 
	d="
M226.850067,495.904785 
	C226.814178,496.387268 226.851273,496.412994 226.536499,496.677338 
	C226.125732,497.622223 226.029755,498.302765 225.933777,498.983307 
	C225.933792,498.983307 225.987549,498.968628 225.973801,498.944061 
	C224.982025,499.380920 223.931656,499.732574 223.037781,500.321686 
	C217.301132,504.102478 210.682022,503.768127 206.007629,499.401703 
	C202.093307,495.745239 201.184677,490.189087 203.776154,485.756500 
	C206.605804,480.916534 212.939163,478.654419 218.628860,480.451538 
	C224.882599,482.426819 227.719223,487.132141 227.053802,494.437042 
	C227.023666,494.767792 226.943039,495.093994 226.850067,495.904785 
z"/>
<path fill="#DCD8DA" opacity="1.000000" stroke="none" 
	d="
M148.822525,498.615784 
	C148.275299,498.213593 148.047638,498.011108 147.609131,497.706421 
	C147.266373,497.314758 147.084427,497.069244 146.707260,496.686005 
	C146.293335,496.040070 146.042572,495.555664 145.615387,494.862366 
	C145.423233,491.870941 144.849075,488.946716 145.511581,486.336334 
	C146.770950,481.374146 151.723648,478.654236 156.215942,479.813477 
	C160.875641,481.015900 163.690201,485.676147 163.003754,491.052490 
	C162.333618,496.301056 158.175888,500.258575 153.414932,499.959778 
	C151.977966,499.869598 150.577377,499.199677 148.822525,498.615784 
z"/>
<path fill="#ED7F36" opacity="1.000000" stroke="none" 
	d="
M293.976257,495.324036 
	C294.444672,495.753082 294.921021,496.543304 295.229614,497.659882 
	C294.702637,497.219238 294.343384,496.452179 293.976257,495.324036 
z"/>
<path fill="#ED7F36" opacity="1.000000" stroke="none" 
	d="
M226.301758,498.856323 
	C226.029755,498.302765 226.125732,497.622223 226.516785,496.691528 
	C226.764481,497.204041 226.717102,497.966705 226.301758,498.856323 
z"/>
</svg>