<?xml version="1.0" encoding="iso-8859-1"?>
<!-- Uploaded to: SVG Repo, www.svgrepo.com, Generator: SVG Repo Mixer Tools -->
<!DOCTYPE svg PUBLIC "-//W3C//DTD SVG 1.1//EN" "http://www.w3.org/Graphics/SVG/1.1/DTD/svg11.dtd">
<svg fill="#000000" height="800px" width="800px" version="1.1" id="Capa_1" xmlns="http://www.w3.org/2000/svg" xmlns:xlink="http://www.w3.org/1999/xlink" 
	 viewBox="0 0 445.548 445.548" xml:space="preserve">
<g>
	<path d="M201.295,330.416c-24.448,0-44.338,19.89-44.338,44.338c0,24.447,19.89,44.337,44.338,44.337
		c24.448,0,44.337-19.89,44.337-44.337C245.633,350.306,225.743,330.416,201.295,330.416z"/>
	<path d="M347.14,290.207H239.314l-8.52-74.488c0.001-0.011,0.003-0.022,0.004-0.033l1.869-27.745
		c0.205-3.052,0.094-7.822-0.253-10.86L214.665,21.904c-0.462-4.037-3.299-7.292-7.003-8.429l-0.528-4.611
		c-0.621-5.426-5.518-9.427-11.072-8.799l-13.909,1.591c-5.478,0.627-9.425,5.594-8.799,11.072l0.433,3.786l-0.131,0.015
		c-5.478,0.627-9.425,5.594-8.799,11.072l17.75,155.177l-7.686,0.879L157.172,28.48c-0.55-4.804-4.453-8.498-9.195-8.835
		l-0.453-3.963c-0.621-5.426-5.52-9.433-11.072-8.799l-13.909,1.591c-5.478,0.627-9.425,5.594-8.799,11.072l0.456,3.986
		c-4.424,1.441-7.383,5.847-6.835,10.645l17.749,155.177c0.348,3.037,1.316,7.71,2.206,10.638l8.085,26.604
		c0.003,0.011,0.008,0.021,0.011,0.032l7.798,68.173c-0.208,0.208-0.425,0.407-0.621,0.629l-33.029,37.272
		c-4.225,4.769-8.497,13.398-9.726,19.647l-15.156,77.079c-0.79,4.017,0.147,8.063,2.571,11.101
		c2.424,3.038,6.161,4.85,10.251,4.972l1.336,0.04c0.153,0.004,0.306,0.007,0.458,0.007c7.615,0,15.148-5.724,17.151-13.031
		l18.598-67.855c1.249-4.555,5.055-11.683,8.146-15.254l18.44-21.306l60.29-6.896H347.14c7.72,0,14-6.28,14-14v-3
		C361.14,296.487,354.86,290.207,347.14,290.207z M117.3,33.041l29.937-3.424l17.75,155.178c0.622,5.426,5.537,9.431,11.071,8.798
		l7.686-0.879c2.649-0.303,5.024-1.624,6.688-3.718c1.665-2.094,2.414-4.707,2.111-7.355l-17.75-155.178
		c0,0,25.348-2.88,29.957-3.253l17.729,154.997c0.28,2.448,0.377,6.583,0.211,9.041c0,0-3.898,28.726-4.349,28.778l-71.534,8.183
		c-1.856,0.212-9.919-27.123-9.919-27.123c-0.717-2.358-1.559-6.419-1.839-8.866L117.3,33.041z"/>
</g>
</svg>