<svg version="1.1" id="Layer_1" xmlns="http://www.w3.org/2000/svg" xmlns:xlink="http://www.w3.org/1999/xlink" x="0px" y="0px"
	 width="100%" viewBox="0 0 1024 1024" enable-background="new 0 0 1024 1024" xml:space="preserve">
<path fill="#202D42" opacity="1.000000" stroke="none" 
	d="
M492.000000,1025.000000 
	C328.000000,1025.000000 164.500000,1025.000000 1.000000,1025.000000 
	C1.000000,683.666687 1.000000,342.333344 1.000000,1.000000 
	C342.333344,1.000000 683.666687,1.000000 1025.000000,1.000000 
	C1025.000000,342.333344 1025.000000,683.666687 1025.000000,1025.000000 
	C847.500000,1025.000000 670.000000,1025.000000 492.000000,1025.000000 
M400.875519,519.995178 
	C400.875519,519.995178 400.719421,520.080688 400.681183,519.873962 
	C400.681183,519.873962 400.356110,519.971863 399.681671,519.407349 
	C399.116058,519.273071 398.550446,519.138855 397.782837,518.670044 
	C397.580841,518.457520 397.340332,518.396179 396.405823,518.054504 
	C395.152283,517.739624 393.898743,517.424683 392.268158,516.386780 
	C392.599304,515.958191 392.930420,515.529602 393.946411,515.048584 
	C398.303802,513.159851 400.415436,509.529968 401.488342,505.162048 
	C402.996582,499.021606 399.239136,492.167542 393.462738,490.387329 
	C387.394409,488.517181 381.169983,491.970276 378.961548,498.432098 
	C376.703369,505.039673 379.397736,511.157654 386.741730,515.617554 
	C386.596710,516.109863 386.451721,516.602112 385.547363,517.113892 
	C380.916626,518.944702 376.232941,520.656067 371.684784,522.673096 
	C370.151733,523.352966 368.110718,524.595459 367.772095,525.948730 
	C366.637177,530.484436 366.166260,535.186279 365.451447,539.758545 
	C382.201111,539.758545 397.928406,539.758545 414.027954,539.758545 
	C413.607483,536.560486 413.241730,533.778381 412.983368,530.489929 
	C412.910126,530.333679 412.836884,530.177490 412.832550,529.251953 
	C412.648987,528.785583 412.465454,528.319153 412.436432,527.519226 
	C412.405823,527.249329 412.267090,527.057556 412.076141,526.441589 
	C411.999512,526.291565 411.922852,526.141541 411.913574,525.485413 
	C411.571259,525.133118 411.228943,524.780884 410.663239,524.031982 
	C410.663239,524.031982 410.343536,523.708008 410.221771,523.900330 
	C410.221771,523.900330 410.564667,523.808899 409.716827,523.442627 
	C409.122528,523.302002 408.528259,523.161377 407.488464,522.552979 
	C406.665771,522.345459 405.843048,522.138000 404.632568,521.485596 
	C403.882446,521.276489 403.132324,521.067383 402.059204,520.380432 
	C401.692291,520.304504 401.325348,520.228577 400.875519,519.995178 
M631.054626,516.909119 
	C625.476440,519.018066 619.863037,521.041443 614.351013,523.311279 
	C613.302979,523.742859 612.126465,525.046814 611.917236,526.124573 
	C611.049255,530.596436 610.529114,535.135742 609.845093,539.903076 
	C626.191101,539.903076 641.749634,539.903076 657.835999,539.903076 
	C657.355225,535.498901 657.148682,531.349731 656.335266,527.323181 
	C656.031677,525.820618 654.585938,523.999573 653.188232,523.364990 
	C647.914307,520.970764 642.446106,519.004639 637.002930,516.157043 
	C639.148621,514.029541 641.707764,512.179138 643.356506,509.718658 
	C647.133057,504.082916 645.978577,496.786896 641.103027,492.558167 
	C637.112061,489.096649 630.611511,489.212280 626.456482,492.818665 
	C621.431641,497.180054 620.469971,504.068085 624.605774,509.863190 
	C626.530640,512.560364 629.390564,514.590210 631.054626,516.909119 
M567.589600,308.920898 
	C528.840698,272.816315 469.559967,286.392242 448.008392,333.085754 
	C445.525909,338.464355 443.246094,340.469849 436.911224,340.194275 
	C406.843140,338.886230 382.350861,362.566742 381.782349,392.688293 
	C381.212280,422.894775 405.036133,447.820282 434.991699,447.910889 
	C486.817291,448.067688 538.645020,448.160828 590.468140,447.777008 
	C597.909180,447.721893 605.745483,445.894318 612.681702,443.104126 
	C633.896973,434.569824 647.239929,411.619415 644.862549,389.440460 
	C642.388855,366.363159 625.185120,347.724487 602.051636,343.364594 
	C597.869446,342.576385 593.518677,342.682373 589.102722,342.365265 
	C584.588013,329.786530 577.850159,318.630707 567.589600,308.920898 
M491.823456,697.500427 
	C491.823456,708.460876 491.823456,719.421326 491.823456,730.408813 
	C510.415100,730.408813 528.635254,730.408813 547.792053,730.408813 
	C547.792053,712.325500 547.792053,694.569763 547.792053,676.814026 
	C548.391479,676.762817 548.990906,676.711548 549.590393,676.660339 
	C550.621338,682.573181 551.935608,688.455627 552.575623,694.410583 
	C552.951599,697.908997 552.348145,701.531067 552.022095,705.082581 
	C551.378479,712.092712 550.621399,719.092285 549.911194,726.096252 
	C550.509460,726.282532 551.107727,726.468872 551.705994,726.655151 
	C556.690735,718.333984 561.729431,710.044067 566.590210,701.651123 
	C567.182739,700.628052 567.071899,699.008484 566.858704,697.737122 
	C564.630554,684.450317 562.340271,671.173706 560.010498,657.904297 
	C559.154053,653.026489 556.276306,650.058899 551.491516,648.505920 
	C543.273254,645.838501 535.299988,642.302002 526.957214,640.177246 
	C522.314209,638.994690 516.898254,638.972656 512.244873,640.114990 
	C503.880035,642.168518 495.853027,645.571899 487.634308,648.256592 
	C482.519531,649.927307 479.572845,653.244812 478.690918,658.541321 
	C477.187805,667.568176 476.209106,676.739319 473.906372,685.561768 
	C470.960022,696.850159 473.392273,706.417358 480.352325,715.380493 
	C483.205475,719.054749 485.529785,723.139771 488.094666,727.037903 
	C488.700836,726.820618 489.306976,726.603271 489.913116,726.385925 
	C488.840698,718.703491 487.753479,711.023071 486.706207,703.337219 
	C486.440369,701.386536 485.919586,699.367249 486.174896,697.468018 
	C486.994781,691.368958 488.085876,685.304626 489.170807,679.244568 
	C489.341766,678.289795 490.023590,677.426514 490.469238,676.520996 
	C490.920380,676.593628 491.371552,676.666260 491.822693,676.738892 
	C491.822693,683.326050 491.822693,689.913208 491.823456,697.500427 
M703.596924,499.139526 
	C693.295532,502.693634 682.952271,506.135498 672.742859,509.936676 
	C671.390320,510.440277 670.115356,512.667358 669.833313,514.276611 
	C668.376709,522.585571 667.255127,530.953247 665.950623,539.745850 
	C691.728210,539.745850 716.890442,539.745850 742.470032,539.745850 
	C741.463196,531.571167 740.529724,523.825012 739.547485,516.085022 
	C739.027100,511.984863 736.422974,509.646790 732.743408,508.242432 
	C726.690491,505.932251 720.706726,503.422302 714.578369,501.335724 
	C711.342102,500.233856 707.861816,499.848755 703.596924,499.139526 
M274.797455,540.096375 
	C298.859009,540.096375 322.920593,540.096375 347.464813,540.096375 
	C346.503418,532.260803 345.495697,525.195007 344.812286,518.097900 
	C344.306854,512.849426 341.762329,509.576263 336.798370,507.852509 
	C330.679901,505.727844 324.691711,503.223755 318.554199,501.160217 
	C315.637146,500.179413 312.182281,498.677094 309.526306,499.413513 
	C298.880981,502.365051 288.386047,505.918427 278.012207,509.730011 
	C276.324463,510.350159 274.826691,513.267883 274.446716,515.344299 
	C273.130951,522.534973 272.246857,529.812500 271.488342,537.087219 
	C271.393402,537.997681 273.031982,539.088806 274.797455,540.096375 
M509.928802,592.287170 
	C502.932953,595.627014 499.028137,601.328003 497.411865,608.748047 
	C494.362518,622.747070 507.239410,638.500854 520.505493,636.673096 
	C530.140137,635.345764 537.264587,630.130005 540.586365,620.804260 
	C543.792847,611.802368 541.674194,603.498047 535.005066,596.884705 
	C528.158081,590.095032 519.850220,588.199097 509.928802,592.287170 
M326.816467,485.140228 
	C327.402100,483.066223 328.219604,481.026489 328.532410,478.912109 
	C329.750885,470.676392 324.789520,461.227753 317.518616,457.629242 
	C310.416565,454.114288 302.037933,455.594482 296.412018,461.369751 
	C290.250671,467.694641 288.464386,475.241516 291.275238,483.454834 
	C293.802185,490.838593 298.994873,496.008850 307.040680,497.036316 
	C316.160400,498.200989 322.141998,493.283295 326.816467,485.140228 
M685.027710,476.506409 
	C685.573181,487.079132 693.455444,496.359467 702.501282,497.079102 
	C711.738892,497.813995 720.253723,491.593048 722.890076,482.182983 
	C725.505188,472.848267 721.349426,462.534424 713.212524,458.165039 
	C700.362244,451.264679 686.906372,459.606812 685.027710,476.506409 
M513.120300,573.390869 
	C513.128784,575.723511 512.946167,578.080933 513.244568,580.375916 
	C513.356140,581.234192 514.555481,582.527222 515.318726,582.570618 
	C516.167175,582.618896 517.558472,581.639587 517.862549,580.799561 
	C518.349915,579.453369 518.206421,577.853699 518.209106,576.360962 
	C518.252136,552.364136 518.278503,528.367310 518.302795,504.370514 
	C518.308350,498.871307 518.469360,493.361908 518.154663,487.880402 
	C518.079956,486.580048 516.375916,485.373199 515.421387,484.123383 
	C514.662903,485.391754 513.686340,486.585297 513.216797,487.952881 
	C512.858337,488.996948 513.140381,490.261566 513.140076,491.428070 
	C513.133301,518.424988 513.126892,545.421875 513.120300,573.390869 
M413.778992,465.217621 
	C418.095795,462.417816 422.571686,459.824890 426.637146,456.698273 
	C427.938721,455.697235 428.154236,453.283936 428.866608,451.516785 
	C427.274414,451.721527 425.363586,451.428864 424.141724,452.211639 
	C416.175079,457.315460 408.353455,462.645905 400.493347,467.915649 
	C395.252533,471.429382 389.979919,474.899628 384.840088,478.556030 
	C383.985718,479.163818 383.739197,480.626007 383.211761,481.693359 
	C384.490540,482.118347 385.866913,483.059937 387.024048,482.841309 
	C388.567780,482.549622 390.010498,481.458679 391.376099,480.533234 
	C398.665039,475.593506 405.916412,470.598358 413.778992,465.217621 
M619.422058,474.024902 
	C623.403320,476.742615 627.393799,479.446899 631.361389,482.184448 
	C633.036621,483.340332 634.982056,484.947052 636.189148,482.174805 
	C636.614502,481.198120 635.428833,478.816772 634.306213,477.991180 
	C629.486572,474.446747 624.409180,471.253662 619.439392,467.912292 
	C611.435669,462.531097 603.487549,457.064392 595.387634,451.832520 
	C594.387939,451.186768 592.602783,451.756927 591.181641,451.763672 
	C591.545471,453.143127 591.746094,454.599030 592.341492,455.870056 
	C592.642578,456.512817 593.659058,456.819031 594.349670,457.281097 
	C602.502747,462.736664 610.655396,468.192963 619.422058,474.024902 
M517.828735,480.323181 
	C523.635071,478.040314 526.251465,473.515259 524.722473,468.400482 
	C523.498596,464.306122 518.714355,461.364380 514.562012,462.152985 
	C510.092285,463.001862 506.591736,467.806458 507.052368,472.460266 
	C507.548920,477.477112 511.261902,480.452423 517.828735,480.323181 
M308.456909,628.037842 
	C308.720245,628.557434 309.305206,629.452942 309.200562,629.542480 
	C304.882507,633.237244 308.439880,635.714722 310.751373,637.994751 
	C311.556732,638.789246 313.563538,638.365662 315.021667,638.498352 
	C314.907959,637.062134 315.311584,635.227661 314.575012,634.270996 
	C312.938507,632.145508 310.730804,630.459839 309.579834,629.372864 
	C309.899017,626.115234 310.344543,623.480347 310.299133,620.853943 
	C310.285675,620.076965 309.001953,618.979126 308.085968,618.676025 
	C307.428711,618.458435 305.806793,619.160828 305.661652,619.723022 
	C304.877472,622.760498 303.339325,626.145386 308.456909,628.037842 
M702.107666,553.848694 
	C701.830627,556.924805 701.289612,560.016785 701.472595,563.065308 
	C701.515320,563.778259 704.011902,564.343933 705.379517,564.977356 
	C705.794678,561.960999 706.522888,558.935120 706.431641,555.934143 
	C706.404663,555.049500 704.060608,554.235352 702.107666,553.848694 
M624.164551,646.287109 
	C626.046570,648.043274 633.105835,649.094543 634.241394,647.489807 
	C634.904541,646.552673 635.052185,644.477173 634.446899,643.573242 
	C633.082825,641.536316 625.404602,643.130981 624.164551,646.287109 
M309.009125,566.085449 
	C309.475311,562.545044 310.034424,559.009949 310.238159,555.454529 
	C310.255157,555.157654 307.877441,554.723511 306.612396,554.353088 
	C306.171906,557.016235 305.332855,559.697937 305.455353,562.334961 
	C305.518707,563.698975 307.287720,564.983704 309.009125,566.085449 
M701.206726,593.083740 
	C702.211731,594.416565 703.624512,597.044861 704.157227,596.877197 
	C708.434814,595.530762 706.437622,591.710205 706.566040,588.883240 
	C706.610901,587.895508 704.787659,586.822937 703.817505,585.789185 
	C702.947266,586.621948 701.693176,587.309265 701.308044,588.325806 
	C700.866638,589.490662 701.196472,590.947815 701.206726,593.083740 
M706.158875,580.124329 
	C706.357239,577.515869 706.918518,574.856628 706.563965,572.325623 
	C706.433655,571.395996 704.137024,570.769897 702.828491,570.005310 
	C702.311646,572.935059 701.514038,575.863098 701.496704,578.795776 
	C701.492920,579.441956 704.256531,580.104492 706.158875,580.124329 
M358.483154,647.977966 
	C358.981689,648.007263 359.535706,648.193298 359.969574,648.039856 
	C362.368958,647.191162 367.156158,650.334473 366.841248,645.267883 
	C366.567902,640.869263 362.034729,643.005737 359.492188,642.998535 
	C355.779541,642.988037 354.759888,644.912720 358.483154,647.977966 
M705.830261,602.167542 
	C701.285156,601.780518 700.037109,603.915833 701.331360,610.399414 
	C701.528137,611.385498 702.953735,613.003357 703.440247,612.878967 
	C704.587280,612.585632 706.263245,611.512024 706.379883,610.584778 
	C706.699463,608.044312 706.325073,605.416626 705.830261,602.167542 
M387.064911,643.197815 
	C384.521698,645.891541 385.195862,647.591553 388.743347,648.071350 
	C390.518127,648.311401 392.420258,648.362488 394.139008,647.960876 
	C395.059723,647.745667 396.358978,646.356934 396.319092,645.555847 
	C396.272858,644.626465 395.047699,643.140015 394.153351,642.992493 
	C392.083801,642.651306 389.905182,642.971680 387.064911,643.197815 
M456.338074,654.136414 
	C454.917389,654.847229 453.496704,655.558105 452.076019,656.268921 
	C453.181763,657.283997 454.176788,658.970215 455.416260,659.174744 
	C458.015045,659.603394 461.675842,663.929138 463.169403,658.934021 
	C464.380768,654.882690 459.493134,655.493958 456.338074,654.136414 
M305.286163,577.311218 
	C305.373169,578.453430 305.155334,579.754639 305.642181,580.688354 
	C306.043182,581.457397 307.279480,581.791016 308.145599,582.317566 
	C309.041412,580.135620 310.459106,577.998047 310.649872,575.756104 
	C310.777527,574.256287 309.161774,572.608154 308.326172,571.026367 
	C307.408691,571.698547 306.165131,572.190125 305.664734,573.093384 
	C305.157410,574.009216 305.384277,575.331787 305.286163,577.311218 
M305.320648,596.631653 
	C306.630890,597.115234 307.941101,597.598877 309.251343,598.082458 
	C309.683838,595.126160 310.316437,592.175415 310.398926,589.209412 
	C310.417969,588.523987 308.620148,587.417664 307.531311,587.225525 
	C306.974670,587.127319 305.670776,588.542725 305.518738,589.415771 
	C305.154236,591.508362 305.271423,593.684937 305.320648,596.631653 
M438.604767,652.263489 
	C439.273193,653.578796 439.714020,655.794983 440.654663,656.032593 
	C443.033386,656.633484 445.636719,656.344971 448.150085,656.412842 
	C447.895844,655.021423 447.881775,652.539856 447.347015,652.422058 
	C444.619080,651.821167 441.756653,651.830994 438.604767,652.263489 
M306.096100,603.698730 
	C305.811035,606.431335 305.221100,609.187622 305.430023,611.881958 
	C305.491272,612.671814 307.821472,613.285767 309.111755,613.980408 
	C309.634186,611.402344 310.595459,608.802612 310.470184,606.256409 
	C310.417664,605.188843 308.063019,604.234558 306.096100,603.698730 
M640.476135,647.926331 
	C641.138367,647.985901 641.857483,648.242737 642.453064,648.071106 
	C645.085083,647.312500 650.146301,650.143311 649.807739,645.108582 
	C649.493835,640.441345 644.670715,643.245178 641.961731,642.989990 
	C638.573242,642.670898 638.069336,644.801025 640.476135,647.926331 
M342.301697,646.282471 
	C345.318542,646.833801 348.330200,647.435364 351.371490,647.751343 
	C351.491974,647.763794 352.588959,644.646606 352.028137,643.700928 
	C350.673553,641.416809 343.763702,642.853210 342.301697,646.282471 
M668.936462,644.869141 
	C669.855103,645.902161 670.788513,647.814575 671.689636,647.799438 
	C674.164185,647.757751 676.625244,646.906982 679.091614,646.376465 
	C678.356689,644.956055 677.546753,642.293640 676.899963,642.332764 
	C674.269104,642.491699 671.688171,643.478821 668.936462,644.869141 
M654.270752,647.031616 
	C657.112610,647.351501 659.973022,647.962341 662.782898,647.782593 
	C663.468689,647.738708 663.988525,645.101257 664.584656,643.656250 
	C661.874451,643.387268 659.139526,642.807373 656.467773,643.020386 
	C655.551636,643.093506 654.793762,645.150818 654.270752,647.031616 
M577.362366,654.805115 
	C575.660889,656.437561 572.222900,658.811401 572.550049,659.577820 
	C574.217957,663.484802 577.313477,660.779358 579.636169,659.935608 
	C580.924438,659.467590 581.703735,657.598816 582.712463,656.361389 
	C581.169006,655.750000 579.625610,655.138611 577.362366,654.805115 
M698.941345,639.109436 
	C699.492554,638.764160 700.271240,638.548828 700.555664,638.051086 
	C701.813782,635.849487 702.975586,633.587158 704.009949,631.274292 
	C704.092712,631.089172 702.564209,629.842590 702.421143,629.948547 
	C700.426758,631.425964 698.366272,632.887085 696.677673,634.686035 
	C694.547852,636.955139 694.846863,638.777771 698.941345,639.109436 
M376.677002,648.144104 
	C378.766449,647.909546 381.982880,649.216492 381.674469,645.429626 
	C381.593781,644.438721 378.977386,642.942627 377.523193,642.939880 
	C375.268372,642.935669 371.614624,641.245056 371.318542,645.442261 
	C371.263245,646.226257 374.287506,647.227539 376.677002,648.144104 
M607.568848,652.247986 
	C608.168579,650.925537 608.871765,649.632935 609.270020,648.252319 
	C609.339661,648.011230 608.011963,646.922485 607.523987,647.038940 
	C604.859070,647.675232 602.203064,648.444702 599.692627,649.516418 
	C599.364197,649.656677 599.848022,652.845337 600.026001,652.852478 
	C602.307983,652.943176 604.602783,652.711548 607.568848,652.247986 
M586.701172,657.011658 
	C589.276855,656.594849 591.990112,656.515198 594.344299,655.555359 
	C595.048401,655.268188 594.749390,652.520752 594.910034,650.900513 
	C592.510681,651.265503 589.917419,651.207458 587.796570,652.179871 
	C586.785706,652.643311 586.673462,655.066589 586.701172,657.011658 
M424.576569,652.729980 
	C427.524689,653.456848 430.472809,654.183655 433.324310,654.886658 
	C435.707581,650.237671 433.338776,649.096008 430.116699,648.979309 
	C427.717072,648.892395 423.579498,646.175781 424.576569,652.729980 
M692.852478,641.917236 
	C691.985779,640.560669 691.119141,639.204163 690.252441,637.847595 
	C687.763794,639.442688 685.275085,641.037720 682.786377,642.632751 
	C683.998474,643.391113 685.315613,644.898804 686.400269,644.746826 
	C688.456238,644.458862 690.379028,643.219299 692.852478,641.917236 
M412.057373,645.729980 
	C411.721375,647.247131 410.804230,649.916748 411.146240,650.089233 
	C412.986877,651.017273 415.122162,651.584412 417.194092,651.729797 
	C418.136749,651.795898 419.795532,650.753906 419.989105,649.942505 
	C420.199829,649.059143 419.339813,647.288879 418.499542,646.917908 
	C416.759735,646.149780 414.723663,646.052612 412.057373,645.729980 
M319.945740,637.379578 
	C318.929474,638.264526 317.913208,639.149475 316.082550,640.743591 
	C319.619354,642.309937 322.077087,643.631409 324.695343,644.419983 
	C325.508942,644.664917 327.307556,643.692871 327.650299,642.862976 
	C327.984375,642.054016 327.357025,640.197998 326.581238,639.711609 
	C324.786804,638.586365 322.647217,638.011536 319.945740,637.379578 
M701.167725,620.001953 
	C701.184021,621.485474 700.859009,623.086853 701.318237,624.417480 
	C701.729492,625.608948 703.004761,626.502319 703.898804,627.527161 
	C704.830627,626.612488 706.163635,625.852051 706.590149,624.742981 
	C707.094177,623.432556 707.101929,621.755798 706.784973,620.360413 
	C706.530396,619.239807 705.539917,617.539246 704.752075,617.468140 
	C703.666260,617.370239 702.463806,618.564270 701.167725,620.001953 
M330.146393,645.211365 
	C332.350281,646.069824 334.507507,647.294861 336.783752,647.584412 
	C337.561432,647.683289 338.637817,645.434204 339.577728,644.257935 
	C337.566040,643.487122 335.591827,642.298523 333.527618,642.113342 
	C332.415924,642.013550 331.149963,643.632874 330.146393,645.211365 
M617.745361,643.219543 
	C616.260254,643.950195 614.546204,644.429626 613.371094,645.500427 
	C612.596008,646.206787 612.596130,647.763794 612.249084,648.939880 
	C613.602600,649.240356 615.196899,650.139587 616.257935,649.712830 
	C618.275269,648.901550 619.987671,647.332031 621.826721,646.077393 
	C620.715576,645.098999 619.604431,644.120605 617.745361,643.219543 
M407.877502,647.401611 
	C407.781189,643.212219 404.735260,642.850708 401.739319,643.113525 
	C400.816467,643.194580 400.041626,644.963318 399.198975,645.959290 
	C401.367859,646.947144 403.510773,648.002197 405.729980,648.859802 
	C406.121033,649.010986 406.831024,648.336914 407.877502,647.401611 
z"/>
<path fill="#F5F6F7" opacity="1.000000" stroke="none" 
	d="
M567.842041,309.169708 
	C577.850159,318.630707 584.588013,329.786530 589.102722,342.365265 
	C593.518677,342.682373 597.869446,342.576385 602.051636,343.364594 
	C625.185120,347.724487 642.388855,366.363159 644.862549,389.440460 
	C647.239929,411.619415 633.896973,434.569824 612.681702,443.104126 
	C605.745483,445.894318 597.909180,447.721893 590.468140,447.777008 
	C538.645020,448.160828 486.817291,448.067688 434.991699,447.910889 
	C405.036133,447.820282 381.212280,422.894775 381.782349,392.688293 
	C382.350861,362.566742 406.843140,338.886230 436.911224,340.194275 
	C443.246094,340.469849 445.525909,338.464355 448.008392,333.085754 
	C469.559967,286.392242 528.840698,272.816315 567.842041,309.169708 
M449.111328,354.153931 
	C437.480194,350.705811 426.077026,350.809143 415.174469,356.674164 
	C399.004730,365.372681 390.010010,385.494263 394.320587,403.036743 
	C399.227264,423.004883 414.608551,435.609009 434.882111,435.803528 
	C456.711456,436.013000 478.544098,435.892670 500.375305,435.893951 
	C531.372314,435.895752 562.371643,436.104706 593.365662,435.793396 
	C617.015381,435.555878 635.961731,413.981171 633.375122,390.945129 
	C630.607910,366.300903 609.415649,350.872345 584.935242,355.655914 
	C583.513550,355.933746 582.050903,356.002411 580.304199,356.203247 
	C578.386963,344.552124 573.831787,334.417114 566.845093,325.219818 
	C540.847534,290.996521 487.893005,292.264038 464.247589,328.176880 
	C459.581512,335.263763 457.054749,343.771423 453.663635,351.676300 
	C452.887177,353.486206 452.919220,355.927795 449.111328,354.153931 
z"/>
<path fill="#F9F9FA" opacity="1.000000" stroke="none" 
	d="
M491.823059,697.000366 
	C491.822693,689.913208 491.822693,683.326050 491.822693,676.738892 
	C491.371552,676.666260 490.920380,676.593628 490.469238,676.520996 
	C490.023590,677.426514 489.341766,678.289795 489.170807,679.244568 
	C488.085876,685.304626 486.994781,691.368958 486.174896,697.468018 
	C485.919586,699.367249 486.440369,701.386536 486.706207,703.337219 
	C487.753479,711.023071 488.840698,718.703491 489.913116,726.385925 
	C489.306976,726.603271 488.700836,726.820618 488.094666,727.037903 
	C485.529785,723.139771 483.205475,719.054749 480.352325,715.380493 
	C473.392273,706.417358 470.960022,696.850159 473.906372,685.561768 
	C476.209106,676.739319 477.187805,667.568176 478.690918,658.541321 
	C479.572845,653.244812 482.519531,649.927307 487.634308,648.256592 
	C495.853027,645.571899 503.880035,642.168518 512.244873,640.114990 
	C516.898254,638.972656 522.314209,638.994690 526.957214,640.177246 
	C535.299988,642.302002 543.273254,645.838501 551.491516,648.505920 
	C556.276306,650.058899 559.154053,653.026489 560.010498,657.904297 
	C562.340271,671.173706 564.630554,684.450317 566.858704,697.737122 
	C567.071899,699.008484 567.182739,700.628052 566.590210,701.651123 
	C561.729431,710.044067 556.690735,718.333984 551.705994,726.655151 
	C551.107727,726.468872 550.509460,726.282532 549.911194,726.096252 
	C550.621399,719.092285 551.378479,712.092712 552.022095,705.082581 
	C552.348145,701.531067 552.951599,697.908997 552.575623,694.410583 
	C551.935608,688.455627 550.621338,682.573181 549.590393,676.660339 
	C548.990906,676.711548 548.391479,676.762817 547.792053,676.814026 
	C547.792053,694.569763 547.792053,712.325500 547.792053,730.408813 
	C528.635254,730.408813 510.415100,730.408813 491.823456,730.408813 
	C491.823456,719.421326 491.823456,708.460876 491.823059,697.000366 
z"/>
<path fill="#F9F9FA" opacity="1.000000" stroke="none" 
	d="
M704.044312,499.139771 
	C707.861816,499.848755 711.342102,500.233856 714.578369,501.335724 
	C720.706726,503.422302 726.690491,505.932251 732.743408,508.242432 
	C736.422974,509.646790 739.027100,511.984863 739.547485,516.085022 
	C740.529724,523.825012 741.463196,531.571167 742.470032,539.745850 
	C716.890442,539.745850 691.728210,539.745850 665.950623,539.745850 
	C667.255127,530.953247 668.376709,522.585571 669.833313,514.276611 
	C670.115356,512.667358 671.390320,510.440277 672.742859,509.936676 
	C682.952271,506.135498 693.295532,502.693634 704.044312,499.139771 
z"/>
<path fill="#F9F9FA" opacity="1.000000" stroke="none" 
	d="
M274.332397,540.096313 
	C273.031982,539.088806 271.393402,537.997681 271.488342,537.087219 
	C272.246857,529.812500 273.130951,522.534973 274.446716,515.344299 
	C274.826691,513.267883 276.324463,510.350159 278.012207,509.730011 
	C288.386047,505.918427 298.880981,502.365051 309.526306,499.413513 
	C312.182281,498.677094 315.637146,500.179413 318.554199,501.160217 
	C324.691711,503.223755 330.679901,505.727844 336.798370,507.852509 
	C341.762329,509.576263 344.306854,512.849426 344.812286,518.097900 
	C345.495697,525.195007 346.503418,532.260803 347.464813,540.096375 
	C322.920593,540.096375 298.859009,540.096375 274.332397,540.096313 
z"/>
<path fill="#F8F8F9" opacity="1.000000" stroke="none" 
	d="
M510.285034,592.147339 
	C519.850220,588.199097 528.158081,590.095032 535.005066,596.884705 
	C541.674194,603.498047 543.792847,611.802368 540.586365,620.804260 
	C537.264587,630.130005 530.140137,635.345764 520.505493,636.673096 
	C507.239410,638.500854 494.362518,622.747070 497.411865,608.748047 
	C499.028137,601.328003 502.932953,595.627014 510.285034,592.147339 
z"/>
<path fill="#F7F7F8" opacity="1.000000" stroke="none" 
	d="
M326.638611,485.473389 
	C322.141998,493.283295 316.160400,498.200989 307.040680,497.036316 
	C298.994873,496.008850 293.802185,490.838593 291.275238,483.454834 
	C288.464386,475.241516 290.250671,467.694641 296.412018,461.369751 
	C302.037933,455.594482 310.416565,454.114288 317.518616,457.629242 
	C324.789520,461.227753 329.750885,470.676392 328.532410,478.912109 
	C328.219604,481.026489 327.402100,483.066223 326.638611,485.473389 
z"/>
<path fill="#F8F8F9" opacity="1.000000" stroke="none" 
	d="
M685.031555,476.070129 
	C686.906372,459.606812 700.362244,451.264679 713.212524,458.165039 
	C721.349426,462.534424 725.505188,472.848267 722.890076,482.182983 
	C720.253723,491.593048 711.738892,497.813995 702.501282,497.079102 
	C693.455444,496.359467 685.573181,487.079132 685.031555,476.070129 
z"/>
<path fill="#F7F7F8" opacity="1.000000" stroke="none" 
	d="
M637.050598,516.878235 
	C642.446106,519.004639 647.914307,520.970764 653.188232,523.364990 
	C654.585938,523.999573 656.031677,525.820618 656.335266,527.323181 
	C657.148682,531.349731 657.355225,535.498901 657.835999,539.903076 
	C641.749634,539.903076 626.191101,539.903076 609.845093,539.903076 
	C610.529114,535.135742 611.049255,530.596436 611.917236,526.124573 
	C612.126465,525.046814 613.302979,523.742859 614.351013,523.311279 
	C619.863037,521.041443 625.476440,519.018066 631.773193,517.063599 
	C634.011353,517.104736 635.530945,516.991455 637.050598,516.878235 
z"/>
<path fill="#F8F8F9" opacity="1.000000" stroke="none" 
	d="
M397.984833,519.004578 
	C398.550446,519.138855 399.116058,519.273071 400.071472,519.729370 
	C400.461304,520.051392 400.719421,520.080688 400.719421,520.080688 
	C400.719421,520.080688 400.875519,519.995178 401.118805,520.256226 
	C401.702118,520.630920 402.042175,520.744568 402.382202,520.858276 
	C403.132324,521.067383 403.882446,521.276489 405.043335,521.950745 
	C406.280731,522.617493 407.107330,522.819153 407.933960,523.020752 
	C408.528259,523.161377 409.122528,523.302002 410.090576,523.633789 
	C410.464355,523.824951 410.343536,523.708008 410.343536,523.708008 
	C410.343536,523.708008 410.663239,524.031982 410.823303,524.462769 
	C411.270966,525.259460 411.558594,525.625488 411.846191,525.991455 
	C411.922852,526.141541 411.999512,526.291565 412.046204,526.855164 
	C412.047028,527.489685 412.135590,527.684326 412.281891,527.852783 
	C412.465454,528.319153 412.648987,528.785583 412.697083,529.749634 
	C412.464142,530.572510 412.568939,530.822205 412.875977,530.996277 
	C413.241730,533.778381 413.607483,536.560486 414.027954,539.758545 
	C397.928406,539.758545 382.201111,539.758545 365.451447,539.758545 
	C366.166260,535.186279 366.637177,530.484436 367.772095,525.948730 
	C368.110718,524.595459 370.151733,523.352966 371.684784,522.673096 
	C376.232941,520.656067 380.916626,518.944702 386.323303,517.112305 
	C388.947906,517.110474 390.796570,517.110107 392.645203,517.109741 
	C393.898743,517.424683 395.152283,517.739624 396.851135,518.412231 
	C397.499084,518.926697 397.728546,519.004944 397.984833,519.004578 
z"/>
<path fill="#EDF0F4" opacity="1.000000" stroke="none" 
	d="
M513.120361,572.904785 
	C513.126892,545.421875 513.133301,518.424988 513.140076,491.428070 
	C513.140381,490.261566 512.858337,488.996948 513.216797,487.952881 
	C513.686340,486.585297 514.662903,485.391754 515.421387,484.123352 
	C516.375916,485.373199 518.079956,486.580048 518.154663,487.880402 
	C518.469360,493.361908 518.308350,498.871307 518.302795,504.370514 
	C518.278503,528.367310 518.252136,552.364136 518.209106,576.360962 
	C518.206421,577.853699 518.349915,579.453369 517.862549,580.799561 
	C517.558472,581.639587 516.167175,582.618896 515.318726,582.570618 
	C514.555481,582.527222 513.356140,581.234192 513.244568,580.375916 
	C512.946167,578.080933 513.128784,575.723511 513.120361,572.904785 
z"/>
<path fill="#F5F6F7" opacity="1.000000" stroke="none" 
	d="
M637.026733,516.517639 
	C635.530945,516.991455 634.011353,517.104736 632.159180,517.070312 
	C629.390564,514.590210 626.530640,512.560364 624.605774,509.863190 
	C620.469971,504.068085 621.431641,497.180054 626.456482,492.818665 
	C630.611511,489.212280 637.112061,489.096649 641.103027,492.558167 
	C645.978577,496.786896 647.133057,504.082916 643.356506,509.718658 
	C641.707764,512.179138 639.148621,514.029541 637.026733,516.517639 
z"/>
<path fill="#F5F6F7" opacity="1.000000" stroke="none" 
	d="
M386.228149,514.931946 
	C379.397736,511.157654 376.703369,505.039673 378.961548,498.432098 
	C381.169983,491.970276 387.394409,488.517181 393.462738,490.387329 
	C399.239136,492.167542 402.996582,499.021606 401.488342,505.162048 
	C400.415436,509.529968 398.303802,513.159851 393.161987,515.044189 
	C390.327759,515.003784 388.277954,514.967896 386.228149,514.931946 
z"/>
<path fill="#EAECF1" opacity="1.000000" stroke="none" 
	d="
M413.479889,465.419983 
	C405.916412,470.598358 398.665039,475.593506 391.376099,480.533234 
	C390.010498,481.458679 388.567780,482.549622 387.024048,482.841309 
	C385.866913,483.059937 384.490540,482.118347 383.211761,481.693359 
	C383.739197,480.626007 383.985718,479.163818 384.840088,478.556030 
	C389.979919,474.899628 395.252533,471.429382 400.493347,467.915649 
	C408.353455,462.645905 416.175079,457.315460 424.141724,452.211639 
	C425.363586,451.428864 427.274414,451.721527 428.866638,451.516785 
	C428.154236,453.283936 427.938721,455.697235 426.637146,456.698273 
	C422.571686,459.824890 418.095795,462.417816 413.479889,465.419983 
z"/>
<path fill="#EAECF1" opacity="1.000000" stroke="none" 
	d="
M619.115112,473.836975 
	C610.655396,468.192963 602.502747,462.736664 594.349670,457.281097 
	C593.659058,456.819031 592.642578,456.512817 592.341492,455.870056 
	C591.746094,454.599030 591.545471,453.143127 591.181641,451.763672 
	C592.602783,451.756927 594.387939,451.186768 595.387634,451.832520 
	C603.487549,457.064392 611.435669,462.531097 619.439392,467.912292 
	C624.409180,471.253662 629.486572,474.446747 634.306213,477.991180 
	C635.428833,478.816772 636.614502,481.198120 636.189148,482.174805 
	C634.982056,484.947052 633.036621,483.340332 631.361389,482.184448 
	C627.393799,479.446899 623.403320,476.742615 619.115112,473.836975 
z"/>
<path fill="#EFF0F2" opacity="1.000000" stroke="none" 
	d="
M517.461304,480.415039 
	C511.261902,480.452423 507.548920,477.477112 507.052368,472.460266 
	C506.591736,467.806458 510.092285,463.001862 514.562012,462.152985 
	C518.714355,461.364380 523.498596,464.306122 524.722473,468.400482 
	C526.251465,473.515259 523.635071,478.040314 517.461304,480.415039 
z"/>
<path fill="#E3E6EB" opacity="1.000000" stroke="none" 
	d="
M308.027344,628.049927 
	C303.339325,626.145386 304.877472,622.760498 305.661652,619.723022 
	C305.806793,619.160828 307.428711,618.458435 308.085968,618.676025 
	C309.001953,618.979126 310.285675,620.076965 310.299133,620.853943 
	C310.344543,623.480347 309.899017,626.115234 309.579834,629.372864 
	C310.730804,630.459839 312.938507,632.145508 314.575012,634.270996 
	C315.311584,635.227661 314.907959,637.062134 315.021667,638.498413 
	C313.563538,638.365662 311.556732,638.789246 310.751373,637.994751 
	C308.439880,635.714722 304.882507,633.237244 309.200562,629.542480 
	C309.305206,629.452942 308.720245,628.557434 308.027344,628.049927 
z"/>
<path fill="#DCDFE4" opacity="1.000000" stroke="none" 
	d="
M702.442993,553.618774 
	C704.060608,554.235352 706.404663,555.049500 706.431641,555.934143 
	C706.522888,558.935120 705.794678,561.960999 705.379517,564.977356 
	C704.011902,564.343933 701.515320,563.778259 701.472595,563.065308 
	C701.289612,560.016785 701.830627,556.924805 702.442993,553.618774 
z"/>
<path fill="#EAECF1" opacity="1.000000" stroke="none" 
	d="
M624.135193,645.896606 
	C625.404602,643.130981 633.082825,641.536316 634.446899,643.573242 
	C635.052185,644.477173 634.904541,646.552673 634.241394,647.489807 
	C633.105835,649.094543 626.046570,648.043274 624.135193,645.896606 
z"/>
<path fill="#DCDFE4" opacity="1.000000" stroke="none" 
	d="
M308.647614,566.194824 
	C307.287720,564.983704 305.518707,563.698975 305.455353,562.334961 
	C305.332855,559.697937 306.171906,557.016235 306.612366,554.353088 
	C307.877441,554.723511 310.255157,555.157654 310.238159,555.454529 
	C310.034424,559.009949 309.475311,562.545044 308.647614,566.194824 
z"/>
<path fill="#DCDFE4" opacity="1.000000" stroke="none" 
	d="
M701.198975,592.680847 
	C701.196472,590.947815 700.866638,589.490662 701.308044,588.325806 
	C701.693176,587.309265 702.947266,586.621948 703.817505,585.789185 
	C704.787659,586.822937 706.610901,587.895508 706.566040,588.883240 
	C706.437622,591.710205 708.434814,595.530762 704.157227,596.877197 
	C703.624512,597.044861 702.211731,594.416565 701.198975,592.680847 
z"/>
<path fill="#DCDFE4" opacity="1.000000" stroke="none" 
	d="
M705.952393,580.441895 
	C704.256531,580.104492 701.492920,579.441956 701.496704,578.795776 
	C701.514038,575.863098 702.311646,572.935059 702.828491,570.005310 
	C704.137024,570.769897 706.433655,571.395996 706.563965,572.325623 
	C706.918518,574.856628 706.357239,577.515869 705.952393,580.441895 
z"/>
<path fill="#EAECF1" opacity="1.000000" stroke="none" 
	d="
M358.106659,647.904785 
	C354.759888,644.912720 355.779541,642.988037 359.492188,642.998535 
	C362.034729,643.005737 366.567902,640.869263 366.841248,645.267883 
	C367.156158,650.334473 362.368958,647.191162 359.969574,648.039856 
	C359.535706,648.193298 358.981689,648.007263 358.106659,647.904785 
z"/>
<path fill="#DCDFE4" opacity="1.000000" stroke="none" 
	d="
M706.027832,602.495483 
	C706.325073,605.416626 706.699463,608.044312 706.379883,610.584778 
	C706.263245,611.512024 704.587280,612.585632 703.440247,612.878967 
	C702.953735,613.003357 701.528137,611.385498 701.331360,610.399414 
	C700.037109,603.915833 701.285156,601.780518 706.027832,602.495483 
z"/>
<path fill="#EAECF1" opacity="1.000000" stroke="none" 
	d="
M387.417847,643.110840 
	C389.905182,642.971680 392.083801,642.651306 394.153351,642.992493 
	C395.047699,643.140015 396.272858,644.626465 396.319092,645.555847 
	C396.358978,646.356934 395.059723,647.745667 394.139008,647.960876 
	C392.420258,648.362488 390.518127,648.311401 388.743347,648.071350 
	C385.195862,647.591553 384.521698,645.891541 387.417847,643.110840 
z"/>
<path fill="#E3E6EB" opacity="1.000000" stroke="none" 
	d="
M456.731842,654.209900 
	C459.493134,655.493958 464.380768,654.882690 463.169403,658.934021 
	C461.675842,663.929138 458.015045,659.603394 455.416260,659.174744 
	C454.176788,658.970215 453.181763,657.283997 452.076019,656.268921 
	C453.496704,655.558105 454.917389,654.847229 456.731842,654.209900 
z"/>
<path fill="#DCDFE4" opacity="1.000000" stroke="none" 
	d="
M305.287872,576.893677 
	C305.384277,575.331787 305.157410,574.009216 305.664734,573.093384 
	C306.165131,572.190125 307.408691,571.698547 308.326172,571.026367 
	C309.161774,572.608154 310.777527,574.256287 310.649872,575.756104 
	C310.459106,577.998047 309.041412,580.135620 308.145599,582.317566 
	C307.279480,581.791016 306.043182,581.457397 305.642181,580.688354 
	C305.155334,579.754639 305.373169,578.453430 305.287872,576.893677 
z"/>
<path fill="#DCDFE4" opacity="1.000000" stroke="none" 
	d="
M305.257446,596.229614 
	C305.271423,593.684937 305.154236,591.508362 305.518738,589.415771 
	C305.670776,588.542725 306.974670,587.127319 307.531311,587.225525 
	C308.620148,587.417664 310.417969,588.523987 310.398926,589.209412 
	C310.316437,592.175415 309.683838,595.126160 309.251343,598.082458 
	C307.941101,597.598877 306.630890,597.115234 305.257446,596.229614 
z"/>
<path fill="#E3E6EB" opacity="1.000000" stroke="none" 
	d="
M438.773010,651.945312 
	C441.756653,651.830994 444.619080,651.821167 447.347015,652.422058 
	C447.881775,652.539856 447.895844,655.021423 448.150085,656.412842 
	C445.636719,656.344971 443.033386,656.633484 440.654663,656.032593 
	C439.714020,655.794983 439.273193,653.578796 438.773010,651.945312 
z"/>
<path fill="#DCDFE4" opacity="1.000000" stroke="none" 
	d="
M306.425537,603.463745 
	C308.063019,604.234558 310.417664,605.188843 310.470184,606.256409 
	C310.595459,608.802612 309.634186,611.402344 309.111755,613.980408 
	C307.821472,613.285767 305.491272,612.671814 305.430023,611.881958 
	C305.221100,609.187622 305.811035,606.431335 306.425537,603.463745 
z"/>
<path fill="#EAECF1" opacity="1.000000" stroke="none" 
	d="
M640.157593,647.708801 
	C638.069336,644.801025 638.573242,642.670898 641.961731,642.989990 
	C644.670715,643.245178 649.493835,640.441345 649.807739,645.108582 
	C650.146301,650.143311 645.085083,647.312500 642.453064,648.071106 
	C641.857483,648.242737 641.138367,647.985901 640.157593,647.708801 
z"/>
<path fill="#EAECF1" opacity="1.000000" stroke="none" 
	d="
M342.235168,645.906372 
	C343.763702,642.853210 350.673553,641.416809 352.028137,643.700928 
	C352.588959,644.646606 351.491974,647.763794 351.371490,647.751343 
	C348.330200,647.435364 345.318542,646.833801 342.235168,645.906372 
z"/>
<path fill="#E3E6EB" opacity="1.000000" stroke="none" 
	d="
M669.012695,644.514893 
	C671.688171,643.478821 674.269104,642.491699 676.899963,642.332764 
	C677.546753,642.293640 678.356689,644.956055 679.091614,646.376465 
	C676.625244,646.906982 674.164185,647.757751 671.689636,647.799438 
	C670.788513,647.814575 669.855103,645.902161 669.012695,644.514893 
z"/>
<path fill="#EDF0F4" opacity="1.000000" stroke="none" 
	d="
M654.117188,646.666626 
	C654.793762,645.150818 655.551636,643.093506 656.467773,643.020386 
	C659.139526,642.807373 661.874451,643.387268 664.584656,643.656250 
	C663.988525,645.101257 663.468689,647.738708 662.782898,647.782593 
	C659.973022,647.962341 657.112610,647.351501 654.117188,646.666626 
z"/>
<path fill="#E3E6EB" opacity="1.000000" stroke="none" 
	d="
M577.722290,654.666138 
	C579.625610,655.138611 581.169006,655.750000 582.712463,656.361389 
	C581.703735,657.598816 580.924438,659.467590 579.636169,659.935608 
	C577.313477,660.779358 574.217957,663.484802 572.550049,659.577820 
	C572.222900,658.811401 575.660889,656.437561 577.722290,654.666138 
z"/>
<path fill="#EAECF1" opacity="1.000000" stroke="none" 
	d="
M698.618164,639.200989 
	C694.846863,638.777771 694.547852,636.955139 696.677673,634.686035 
	C698.366272,632.887085 700.426758,631.425964 702.421143,629.948547 
	C702.564209,629.842590 704.092712,631.089172 704.009949,631.274292 
	C702.975586,633.587158 701.813782,635.849487 700.555664,638.051086 
	C700.271240,638.548828 699.492554,638.764160 698.618164,639.200989 
z"/>
<path fill="#EAECF1" opacity="1.000000" stroke="none" 
	d="
M376.283813,648.136353 
	C374.287506,647.227539 371.263245,646.226257 371.318542,645.442261 
	C371.614624,641.245056 375.268372,642.935669 377.523193,642.939880 
	C378.977386,642.942627 381.593781,644.438721 381.674469,645.429626 
	C381.982880,649.216492 378.766449,647.909546 376.283813,648.136353 
z"/>
<path fill="#DCDFE4" opacity="1.000000" stroke="none" 
	d="
M607.231567,652.404785 
	C604.602783,652.711548 602.307983,652.943176 600.026001,652.852478 
	C599.848022,652.845337 599.364197,649.656677 599.692627,649.516418 
	C602.203064,648.444702 604.859070,647.675232 607.523987,647.038940 
	C608.011963,646.922485 609.339661,648.011230 609.270020,648.252319 
	C608.871765,649.632935 608.168579,650.925537 607.231567,652.404785 
z"/>
<path fill="#EAECF1" opacity="1.000000" stroke="none" 
	d="
M586.427734,656.806885 
	C586.673462,655.066589 586.785706,652.643311 587.796570,652.179871 
	C589.917419,651.207458 592.510681,651.265503 594.910034,650.900513 
	C594.749390,652.520752 595.048401,655.268188 594.344299,655.555359 
	C591.990112,656.515198 589.276855,656.594849 586.427734,656.806885 
z"/>
<path fill="#EAECF1" opacity="1.000000" stroke="none" 
	d="
M424.366943,652.400391 
	C423.579498,646.175781 427.717072,648.892395 430.116699,648.979309 
	C433.338776,649.096008 435.707581,650.237671 433.324310,654.886658 
	C430.472809,654.183655 427.524689,653.456848 424.366943,652.400391 
z"/>
<path fill="#EAECF1" opacity="1.000000" stroke="none" 
	d="
M692.604797,642.146179 
	C690.379028,643.219299 688.456238,644.458862 686.400269,644.746826 
	C685.315613,644.898804 683.998474,643.391113 682.786377,642.632751 
	C685.275085,641.037720 687.763794,639.442688 690.252441,637.847595 
	C691.119141,639.204163 691.985779,640.560669 692.604797,642.146179 
z"/>
<path fill="#EAECF1" opacity="1.000000" stroke="none" 
	d="
M412.433411,645.704712 
	C414.723663,646.052612 416.759735,646.149780 418.499542,646.917908 
	C419.339813,647.288879 420.199829,649.059143 419.989105,649.942505 
	C419.795532,650.753906 418.136749,651.795898 417.194092,651.729797 
	C415.122162,651.584412 412.986877,651.017273 411.146240,650.089233 
	C410.804230,649.916748 411.721375,647.247131 412.433411,645.704712 
z"/>
<path fill="#E3E6EB" opacity="1.000000" stroke="none" 
	d="
M320.296692,637.296509 
	C322.647217,638.011536 324.786804,638.586365 326.581238,639.711609 
	C327.357025,640.197998 327.984375,642.054016 327.650299,642.862976 
	C327.307556,643.692871 325.508942,644.664917 324.695343,644.419983 
	C322.077087,643.631409 319.619354,642.309937 316.082550,640.743591 
	C317.913208,639.149475 318.929474,638.264526 320.296692,637.296509 
z"/>
<path fill="#DCDFE4" opacity="1.000000" stroke="none" 
	d="
M701.239502,619.603394 
	C702.463806,618.564270 703.666260,617.370239 704.752075,617.468140 
	C705.539917,617.539246 706.530396,619.239807 706.784973,620.360413 
	C707.101929,621.755798 707.094177,623.432556 706.590149,624.742981 
	C706.163635,625.852051 704.830627,626.612488 703.898804,627.527161 
	C703.004761,626.502319 701.729492,625.608948 701.318237,624.417480 
	C700.859009,623.086853 701.184021,621.485474 701.239502,619.603394 
z"/>
<path fill="#DCDFE4" opacity="1.000000" stroke="none" 
	d="
M330.049988,644.843933 
	C331.149963,643.632874 332.415924,642.013550 333.527618,642.113342 
	C335.591827,642.298523 337.566040,643.487122 339.577698,644.257935 
	C338.637817,645.434204 337.561432,647.683289 336.783752,647.584412 
	C334.507507,647.294861 332.350281,646.069824 330.049988,644.843933 
z"/>
<path fill="#E3E6EB" opacity="1.000000" stroke="none" 
	d="
M618.119324,643.180908 
	C619.604431,644.120605 620.715576,645.098999 621.826721,646.077393 
	C619.987671,647.332031 618.275269,648.901550 616.257935,649.712830 
	C615.196899,650.139587 613.602600,649.240356 612.249146,648.939941 
	C612.596130,647.763794 612.596008,646.206787 613.371094,645.500427 
	C614.546204,644.429626 616.260254,643.950195 618.119324,643.180908 
z"/>
<path fill="#EAECF1" opacity="1.000000" stroke="none" 
	d="
M407.635620,647.722778 
	C406.831024,648.336914 406.121033,649.010986 405.729980,648.859802 
	C403.510773,648.002197 401.367859,646.947144 399.198975,645.959290 
	C400.041626,644.963318 400.816467,643.194580 401.739319,643.113525 
	C404.735260,642.850708 407.781189,643.212219 407.635620,647.722778 
z"/>
<path fill="#EFF0F2" opacity="1.000000" stroke="none" 
	d="
M386.484924,515.274780 
	C388.277954,514.967896 390.327759,515.003784 392.819580,515.070374 
	C392.930420,515.529602 392.599304,515.958191 392.456665,516.748291 
	C390.796570,517.110107 388.947906,517.110474 386.703003,517.102600 
	C386.451721,516.602112 386.596710,516.109863 386.484924,515.274780 
z"/>
<path fill="#EFF0F2" opacity="1.000000" stroke="none" 
	d="
M407.711212,522.786865 
	C407.107330,522.819153 406.280731,522.617493 405.237244,522.173218 
	C405.843048,522.138000 406.665771,522.345459 407.711212,522.786865 
z"/>
<path fill="#EFF0F2" opacity="1.000000" stroke="none" 
	d="
M411.879883,525.738403 
	C411.558594,525.625488 411.270966,525.259460 410.934998,524.661011 
	C411.228943,524.780884 411.571259,525.133118 411.879883,525.738403 
z"/>
<path fill="#EFF0F2" opacity="1.000000" stroke="none" 
	d="
M397.883850,518.837280 
	C397.728546,519.004944 397.499084,518.926697 397.178864,518.627930 
	C397.340332,518.396179 397.580841,518.457520 397.883850,518.837280 
z"/>
<path fill="#EFF0F2" opacity="1.000000" stroke="none" 
	d="
M400.700317,519.977295 
	C400.719421,520.080688 400.461304,520.051392 400.408691,520.011597 
	C400.356110,519.971863 400.681183,519.873962 400.700317,519.977295 
z"/>
<path fill="#EFF0F2" opacity="1.000000" stroke="none" 
	d="
M412.929688,530.743103 
	C412.568939,530.822205 412.464142,530.572510 412.662659,530.134277 
	C412.836884,530.177490 412.910126,530.333679 412.929688,530.743103 
z"/>
<path fill="#EFF0F2" opacity="1.000000" stroke="none" 
	d="
M412.359161,527.686035 
	C412.135590,527.684326 412.047028,527.489685 412.018188,527.106323 
	C412.267090,527.057556 412.405823,527.249329 412.359161,527.686035 
z"/>
<path fill="#EFF0F2" opacity="1.000000" stroke="none" 
	d="
M410.282654,523.804199 
	C410.343536,523.708008 410.464355,523.824951 410.514526,523.816895 
	C410.564667,523.808899 410.221771,523.900330 410.282654,523.804199 
z"/>
<path fill="#EFF0F2" opacity="1.000000" stroke="none" 
	d="
M402.220703,520.619385 
	C402.042175,520.744568 401.702118,520.630920 401.160278,520.334961 
	C401.325348,520.228577 401.692291,520.304504 402.220703,520.619385 
z"/>
<path fill="#212F43" opacity="1.000000" stroke="none" 
	d="
M449.498169,354.270905 
	C452.919220,355.927795 452.887177,353.486206 453.663635,351.676300 
	C457.054749,343.771423 459.581512,335.263763 464.247589,328.176880 
	C487.893005,292.264038 540.847534,290.996521 566.845093,325.219818 
	C573.831787,334.417114 578.386963,344.552124 580.304199,356.203247 
	C582.050903,356.002411 583.513550,355.933746 584.935242,355.655914 
	C609.415649,350.872345 630.607910,366.300903 633.375122,390.945129 
	C635.961731,413.981171 617.015381,435.555878 593.365662,435.793396 
	C562.371643,436.104706 531.372314,435.895752 500.375305,435.893951 
	C478.544098,435.892670 456.711456,436.013000 434.882111,435.803528 
	C414.608551,435.609009 399.227264,423.004883 394.320587,403.036743 
	C390.010010,385.494263 399.004730,365.372681 415.174469,356.674164 
	C426.077026,350.809143 437.480194,350.705811 449.498169,354.270905 
M546.856384,358.431824 
	C545.488281,357.511139 544.240356,356.241852 542.733887,355.722931 
	C524.799927,349.545044 506.774048,350.098541 488.806488,355.501709 
	C485.809082,356.403107 484.233154,358.668549 484.284698,362.355530 
	C484.503632,378.007111 484.370270,393.663574 484.375366,409.318237 
	C484.377869,417.049927 484.799316,418.585876 492.561462,419.891205 
	C502.819000,421.616180 513.322388,422.637634 523.709229,422.557343 
	C530.172241,422.507355 536.679321,420.086212 543.035095,418.269165 
	C545.555908,417.548492 547.134888,415.584442 547.097595,412.232727 
	C546.901245,394.580231 547.021362,376.924194 546.856384,358.431824 
z"/>
<path fill="#EFF0F2" opacity="1.000000" stroke="none" 
	d="
M546.943970,358.850616 
	C547.021362,376.924194 546.901245,394.580231 547.097595,412.232727 
	C547.134888,415.584442 545.555908,417.548492 543.035095,418.269165 
	C536.679321,420.086212 530.172241,422.507355 523.709229,422.557343 
	C513.322388,422.637634 502.819000,421.616180 492.561462,419.891205 
	C484.799316,418.585876 484.377869,417.049927 484.375366,409.318237 
	C484.370270,393.663574 484.503632,378.007111 484.284698,362.355530 
	C484.233154,358.668549 485.809082,356.403107 488.806488,355.501709 
	C506.774048,350.098541 524.799927,349.545044 542.733887,355.722931 
	C544.240356,356.241852 545.488281,357.511139 546.943970,358.850616 
M505.877533,415.891296 
	C516.415833,415.139221 526.970154,414.556061 537.485474,413.561035 
	C542.451660,413.091095 543.479187,409.724243 541.987671,405.050079 
	C524.459351,410.561340 506.840668,409.891541 489.364563,405.330902 
	C487.751648,410.495453 490.000488,412.733521 494.233673,413.632904 
	C497.802582,414.391174 501.385315,415.084198 505.877533,415.891296 
M514.524414,380.917358 
	C506.159729,379.919617 497.795044,378.921875 489.341614,377.913544 
	C487.671326,382.226685 490.013336,384.542633 494.694885,385.605408 
	C509.038452,388.861755 523.331848,389.120697 537.679260,385.523804 
	C542.450439,384.327698 543.634583,381.690582 542.526611,377.937531 
	C533.249756,378.958618 524.361084,379.937012 514.524414,380.917358 
M489.122833,391.993744 
	C488.229797,396.476166 490.354614,398.674225 494.572937,399.648041 
	C508.920776,402.960205 523.230103,403.123383 537.586914,399.678162 
	C542.405212,398.521912 543.529114,395.710327 542.225464,391.294067 
	C522.578552,396.247314 514.509827,396.231598 489.122833,391.993744 
M509.791656,373.834412 
	C519.189636,372.927185 528.590698,372.050385 537.984192,371.098907 
	C542.199524,370.671936 543.639038,368.284790 542.551636,364.097168 
	C524.884338,369.618256 507.209656,369.269073 489.509155,364.518799 
	C489.192413,369.763275 489.149384,370.094238 493.158966,371.020172 
	C498.329803,372.214294 503.621552,372.884918 509.791656,373.834412 
z"/>
<path fill="#2C3A4A" opacity="1.000000" stroke="none" 
	d="
M505.419739,415.848694 
	C501.385315,415.084198 497.802582,414.391174 494.233673,413.632904 
	C490.000488,412.733521 487.751648,410.495453 489.364563,405.330902 
	C506.840668,409.891541 524.459351,410.561340 541.987671,405.050079 
	C543.479187,409.724243 542.451660,413.091095 537.485474,413.561035 
	C526.970154,414.556061 516.415833,415.139221 505.419739,415.848694 
z"/>
<path fill="#2F3B4C" opacity="1.000000" stroke="none" 
	d="
M514.998413,380.916382 
	C524.361084,379.937012 533.249756,378.958618 542.526611,377.937531 
	C543.634583,381.690582 542.450439,384.327698 537.679260,385.523804 
	C523.331848,389.120697 509.038452,388.861755 494.694885,385.605408 
	C490.013336,384.542633 487.671326,382.226685 489.341614,377.913544 
	C497.795044,378.921875 506.159729,379.919617 514.998413,380.916382 
z"/>
<path fill="#2F3B4C" opacity="1.000000" stroke="none" 
	d="
M489.289001,391.617615 
	C514.509827,396.231598 522.578552,396.247314 542.225464,391.294067 
	C543.529114,395.710327 542.405212,398.521912 537.586914,399.678162 
	C523.230103,403.123383 508.920776,402.960205 494.572937,399.648041 
	C490.354614,398.674225 488.229797,396.476166 489.289001,391.617615 
z"/>
<path fill="#323F4E" opacity="1.000000" stroke="none" 
	d="
M509.326416,373.807709 
	C503.621552,372.884918 498.329803,372.214294 493.158966,371.020172 
	C489.149384,370.094238 489.192413,369.763275 489.509155,364.518799 
	C507.209656,369.269073 524.884338,369.618256 542.551636,364.097168 
	C543.639038,368.284790 542.199524,370.671936 537.984192,371.098907 
	C528.590698,372.050385 519.189636,372.927185 509.326416,373.807709 
z"/>
</svg>